<svg width="190" height="190" viewBox="0 0 190 190" fill="none" xmlns="http://www.w3.org/2000/svg">
<path fill-rule="evenodd" clip-rule="evenodd" d="M119.853 98.286C120.703 98.6277 120.905 99.928 121.755 100.27C130.09 103.622 141.951 93.8534 159.924 121.288C170.985 138.171 173.57 137.389 172.967 143.305C172.816 143.361 171.07 144.003 171.07 144.003C157.23 142.071 157.597 147.473 145.93 146.942C131.534 146.288 126.14 138.346 123.017 135.138C119.872 130.363 119.043 130.365 118.738 131.254C116.224 138.562 116.156 138.441 112.317 145.064C106.736 152.444 106.817 152.482 106.331 153.121C103.415 156.954 101.4 151.035 97.9267 144.203C94.6558 137.768 96.3219 146.662 92.5988 156.395C89.4706 164.576 75.8966 178.818 71.8037 178.277C70.9114 176.569 70.8833 176.594 70.8401 176.433C65.2328 155.493 58.5202 157.069 58.8809 135.353C59.5512 131.743 59.8275 131.899 60.7028 128.283C61.2193 126.146 54.0927 127.983 48.4191 128.831C48.2593 128.787 46.4244 128.288 46.4244 128.288C45.3673 127.245 49.834 117.065 50.244 116.132C53.6948 108.628 54.2233 108.885 54.373 108.184C54.9116 105.664 52.9511 108.861 42.4109 109.026C31.0396 109.203 6.40192 95.7658 13.1517 92.8576C37.8146 82.231 37.7332 82.3506 41.1649 80.6734C45.2597 78.6717 35.023 71.2577 34.7246 69.9764C34.2894 68.1064 46.4908 66.4312 47.5489 66.2865C52.1251 65.6575 38.0738 56.4618 46.7158 34.9312C53.6495 17.6582 52.8245 17.0633 54.3178 16.5026C56.6863 15.6133 60.1079 24.9687 72.7141 35.5803C74.3672 36.9721 74.2737 33.7283 79.8237 23.8985C87.5402 10.2311 82.7952 -0.513069 89.4324 5.90713C100.717 16.8222 118.551 26.8077 114.942 55.9302C114.761 57.3883 116.463 58.977 132.065 49.2628C138.053 45.5347 134.627 63.1242 137.837 61.7987C144.258 59.1458 143.922 56.9471 174.06 56.1422C174.068 56.1422 180.015 55.3534 177.111 60.9747C155.857 102.142 146.692 99.4939 119.853 98.286Z" fill="#3A3C31"/>
<path fill-rule="evenodd" clip-rule="evenodd" d="M112.262 56.6758C112.15 57.1401 112.037 57.6044 111.924 58.0696C110.703 58.8223 110.877 58.9348 109.603 59.5005C92.4662 67.1075 93.5926 78.1512 91.5306 73.1197C83.7789 54.2038 74.6315 53.4944 74.731 49.8527C74.9701 41.0811 74.7079 41.0499 78.0119 33.0108C79.9956 28.1834 80.8999 28.7099 82.8514 23.9026C88.6637 9.58802 86.6057 8.62936 87.7754 7.99327C88.6476 7.51896 88.4969 8.13094 89.5661 9.78297C92.3918 14.1512 116.261 24.0885 112.262 56.6758Z" fill="#7C9655"/>
<path fill-rule="evenodd" clip-rule="evenodd" d="M118.471 101.876L119.789 102.564C145.674 102.624 152.113 114.778 155.546 119.572C156.72 121.212 169.768 139.434 169.887 140.32C170.16 142.344 168.958 140.98 166.976 140.648C164.892 140.297 159.514 141.736 158.881 141.906C131.197 149.313 129.148 136.217 121.068 128.079C117.014 123.997 122.52 121.963 116.559 110.271C118.27 109.444 118.276 109.275 118.401 109.38C122.895 113.16 124.307 111.871 126.59 117.386C127.68 126.145 136.021 133.695 133.129 127.23C129.991 120.217 129.144 120.294 129.918 117.845C139.505 126.139 139.832 125.916 141.541 129.52C143.339 137.809 151.672 141.573 147.869 136.353C147.054 135.235 146.167 134.168 145.349 133.051C144.872 132.398 144.881 132.369 144.904 132.302C145.216 131.375 145.753 131.854 146.046 130.984C155.483 138.016 156.36 137.088 156.765 136.223C157.194 135.307 157 134.863 146.683 128.574C137.409 122.922 149.218 126.213 151.96 126.42C156.408 126.754 151.686 122.625 142.919 123.066C136.237 123.404 137.718 119.899 128.617 114.39C130.553 111.739 133.744 112.863 140.911 113.399C145.332 113.73 140.578 108.701 127.8 110.705C121.228 112.107 121.961 105.942 115.393 107.572C114.098 104 115.487 104.11 118.471 101.876Z" fill="#7B9457"/>
<path fill-rule="evenodd" clip-rule="evenodd" d="M87.4568 115.82C89.6053 118.844 85.3154 125.248 90.993 135.115C94.4588 141.14 93.7926 141.476 92.2742 148.319C91.7095 150.867 88.9219 163.433 73.5844 175.049C68.5409 157.883 64.5706 155.298 63.9958 152.261C63.2623 148.387 58.7272 141.297 63.1296 129.032C63.8401 127.053 63.9365 126.794 68.5047 125.951C73.298 125.068 73.2016 125.091 77.617 123.063C77.1859 126.94 76.1639 126.37 74.3451 128.122C71.2189 129.394 66.8879 133.665 66.925 134.334C67.1893 139.054 68.8152 132.122 74.8586 131.284C72.6338 141.379 71.9173 142.419 71.3526 143.24C68.6916 146.493 68.55 146.372 67.7169 150.38C65.5112 160.998 70.7898 147.923 70.9164 147.61C74.0959 139.734 71.5817 149.996 72.7021 158.414C76.8985 189.938 74.4707 151.971 74.4315 151.394C73.7713 141.775 78.4219 157.545 79.0309 158.033C82.5108 160.826 78.3113 149.868 78.0561 149.204C74.331 139.484 75.7047 139.218 77.4884 129.236C78.5375 123.367 78.6259 130.733 82.1129 137.647C82.2515 137.922 92.5988 154.415 85.5445 139.368C82.1169 132.055 82.1962 132.106 80.3 124.282C81.5813 118.621 83.1981 119.683 87.4568 115.82Z" fill="#799452"/>
<path fill-rule="evenodd" clip-rule="evenodd" d="M150.592 69.7765C147.612 75.228 146.928 74.5859 141.984 78.2115C141.753 77.6648 140.897 77.5603 140.665 77.0136C140.606 76.874 143.024 73.4162 144.649 69.9212C146.888 65.1068 143.019 67.819 142.908 67.9948C136.208 78.5491 137.642 79.2958 136.835 80.0092C136.496 80.3077 134.139 82.3928 131.828 82.6189C131.299 82.6701 130.925 81.8642 130.395 81.9155C138.236 69.6589 133.399 66.0333 139.041 64.2647C147.851 61.5033 147.528 59.8724 164.016 59.3227C164.813 59.2956 178.545 57.6546 173.612 61.6992C169.587 64.9993 162.191 99.4497 127.784 96.4752C123.168 96.0763 123.308 96.0542 118.791 96.0622C116.091 96.0662 115.941 96.8631 112.994 95.201C125.851 86.6414 127.64 85.0427 128.795 84.0107C129.727 84.8015 134.58 88.9175 142.913 89.8541C145.361 90.1294 146.076 88.2895 143.759 87.4363C139.082 85.7119 131.698 84.493 134.289 83.4831C134.814 83.2781 134.786 83.3223 140.987 81.3216C143.444 80.4514 143.332 80.2172 145.928 80.5107C154.672 82.635 154.946 78.7581 153.825 78.3682C151.86 77.6839 151.744 79.341 146.839 78.0376C150.469 75.3466 150.828 73.7086 156.983 74.197C159.191 74.3718 163.32 73.3358 163.74 72.7932C164.807 71.4114 163.428 70.9864 156.93 72.0244C163.197 66.3468 164.66 68.1697 165.751 65.8373C166.267 64.736 164.394 62.7102 155.902 69.8559C154.374 71.0115 154.557 71.2828 152.555 71.3984C156.793 63.712 157.115 63.703 156.797 63.0227C155.561 60.3869 150.935 69.1283 150.592 69.7765Z" fill="#80975B"/>
<path fill-rule="evenodd" clip-rule="evenodd" d="M127.747 80.9809C126.386 82.1697 112.536 94.2705 108.73 93.1451C103.958 91.7342 101.618 93.4586 101.893 89.1095C102.516 79.2727 94.901 75.847 99.1054 70.3513C107.62 59.2212 111.66 65.2053 131.77 52.6423C134.156 51.151 134.822 64.6707 131.539 73.9106C130.183 77.7251 129.916 77.5201 127.747 80.9809Z" fill="#80995B"/>
<path fill-rule="evenodd" clip-rule="evenodd" d="M94.0207 107.44C95.6456 105.172 95.6587 103.329 97.6283 105.23C105.138 112.479 109.698 103.242 113.376 109.487C123.071 125.949 113.287 139.046 106.547 148.225C103.459 152.43 102.988 148.367 100.45 143.48C95.4346 133.819 88.4717 135.49 90.8543 114.312C91.9778 110.647 92.1657 110.846 94.0207 107.44Z" fill="#7C9758"/>
<path fill-rule="evenodd" clip-rule="evenodd" d="M75.98 88.819C74.2486 89.3054 74.4074 89.7395 72.6066 89.7666C69.5478 89.8119 69.6935 89.7526 66.5683 89.7365C66.0106 89.2963 58.2167 83.1464 58.477 86.0737C58.4951 86.2807 58.5735 86.2596 64.4128 90.6409C63.7335 90.6459 59.0708 91.0649 54.4936 89.9294C53.8043 89.648 47.1358 86.9238 45.5099 87.5157C42.03 88.7819 48.812 90.5022 49.1838 90.5956C50.7786 91.0006 50.4329 91.4418 51.7352 92.324C50.6328 92.6356 44.697 95.4231 39.4867 92.7803C39.2074 92.6386 28.0391 86.9731 35.5787 93.0114C40.3248 96.8109 28.8781 93.3842 27.4321 94.3067C24.527 96.1617 33.775 97.1565 34.3739 97.2219C38.0206 97.6138 37.7683 95.9205 41.5135 95.9889L42.1416 97.0048C41.9165 97.1364 29.5133 104.933 41.4201 100.175C44.486 98.9513 43.8378 98.0167 46.7912 96.5205C56.4481 91.6297 60.4043 93.54 61.4776 94.0585C67.0135 91.7332 70.1889 93.3731 78.6148 90.7132C84.1166 91.4639 84.4241 91.5885 84.8963 91.7804C85.6028 92.0678 85.0622 92.2527 85.2862 92.8918C82.5268 94.159 82.5258 93.6615 79.5765 93.8665C59.6537 95.2503 62.3558 105.965 42.4139 106.243C32.2535 106.383 15.7654 96.2903 15.8157 95.1046C15.8157 95.0855 44.9372 81.9024 45.3331 81.7477C64.4581 74.3175 71.3636 85.6758 75.98 88.819Z" fill="#809B58"/>
<path fill-rule="evenodd" clip-rule="evenodd" d="M87.6065 86.0767C87.6357 87.0896 87.6658 88.1036 87.695 89.1165C69.4915 90.7725 59.4588 63.5362 62.9337 48.0449C63.6913 44.6695 78.3928 57.4908 79.1464 58.3711C94.1765 75.9224 89.7741 79.4555 87.6065 86.0767Z" fill="#7F9859"/>
<path fill-rule="evenodd" clip-rule="evenodd" d="M84.6271 101.146L84.6663 102.169C79.7112 103.955 80.8216 106.632 75.5711 106.737C64.1436 103.057 59.903 107.987 62.3036 108.576C65.2248 109.292 68.9268 106.18 73.2418 109C66.0559 113.373 66.3483 114.302 62.5488 114.34C57.4249 114.392 53.9711 117.836 57.3686 117.526C60.4456 117.245 60.2024 116.687 60.4566 116.718C62.4222 116.949 56.7426 120.253 56.6933 120.33C51.9825 127.732 72.4128 112.244 73.6367 111.316C73.8055 111.746 74.5803 111.712 74.7491 112.142C74.8466 112.393 71.2199 116.56 72.5675 117.21C72.9393 117.389 76.5046 115.442 77.7607 110.4C80.5091 107.471 80.1202 107.094 83.6192 105.155C83.5448 106.187 83.4715 107.22 83.3981 108.252C82.8133 112.212 82.3068 114.664 82.1923 115.217L82.9017 116.608C70.1176 125.658 68.8826 122.641 50.5073 125.839C47.5188 126.359 52.4538 118.486 53.0607 116.109C53.8214 113.126 59.4738 99.305 74.5129 96.8772C79.4238 96.0853 80.6246 94.5057 82.8705 98.9312C83.0092 99.2035 84.4824 100.972 84.6271 101.146Z" fill="#7E9958"/>
<path fill-rule="evenodd" clip-rule="evenodd" d="M112.317 145.064L114.107 146.369L113.932 147.374L113.608 148.378L113.053 149.383L112.388 150.388C107.977 158.302 107.834 158.523 107.396 159.204C103.549 165.183 101.752 160.004 99.5496 155.413C98.1809 152.562 99.4571 150.096 96.4937 151.393C95.9652 151.625 97.4584 152.212 94.8699 158.427C88.5672 173.559 78.1697 182.522 76.2443 184.182C72.684 187.252 73.2397 183.532 70.8933 179.53L71.8037 178.277C75.8966 178.818 89.4706 164.576 92.5988 156.395C96.3219 146.662 94.6558 137.768 97.9267 144.203C101.4 151.035 103.415 156.954 106.331 153.121C106.817 152.482 106.736 152.444 112.317 145.064Z" fill="black" fill-opacity="0.15"/>
<path fill-rule="evenodd" clip-rule="evenodd" d="M53.4013 25.7596C54.9518 20.6839 55.6934 20.2769 56.1597 21.0296C64.1686 33.9765 67.3119 31.2764 72.3142 38.9296C72.886 39.8059 73.0106 49.0226 71.5555 48.886C68.0374 48.5564 62.1498 36.3079 60.2757 48.8508C60.1792 49.4949 60.2385 49.4527 59.7712 56.9843C59.0678 55.8016 54.986 48.9382 57.8529 39.8933C57.9996 39.5215 64.9615 21.9983 57.5344 34.9101C56.848 36.1029 56.5667 35.7371 56.0472 36.1812C56.0723 31.9014 56.008 31.9859 55.601 27.7031C55.3367 27.5694 55.6663 26.9705 55.401 26.8368C55.1116 26.6901 54.7951 27.1584 54.4715 27.1313C52.9411 26.9986 53.751 26.2078 53.4013 25.7596Z" fill="#7C9854"/>
<path fill-rule="evenodd" clip-rule="evenodd" d="M53.4013 25.7596C53.751 26.2078 52.9411 26.9986 54.4715 27.1313C54.7951 27.1584 55.1116 26.6901 55.401 26.8368C55.6663 26.9705 55.3367 27.5694 55.601 27.7031C54.3087 28.5451 54.2725 28.4095 53.75 29.8143C53.752 33.4932 53.6254 33.3987 53.6063 36.9871C53.3872 36.8927 48.4392 34.3192 51.9683 39.0391C52.5914 39.9063 53.7711 41.5493 55.4965 51.9107C52.5361 51.7549 53.5148 49.1322 50.5866 49.309C50.0299 49.3422 48.5889 50.4928 54.0605 55.3544C54.5037 55.6016 55.185 55.9804 59.2457 59.0182C61.7559 68.2069 61.4072 68.7063 60.6285 68.6671C60.0165 68.6359 60.3531 67.82 53.4506 66.0052C51.1765 65.4073 42.643 52.9598 48.7356 36.9972C49.0823 36.0878 49.1758 36.2325 53.4013 25.7596Z" fill="#7C9755"/>
<path fill-rule="evenodd" clip-rule="evenodd" d="M123.017 135.138C126.14 138.346 131.534 146.288 145.93 146.942C157.597 147.473 157.23 142.071 171.07 144.003C171.07 144.003 172.816 143.361 172.967 143.305C176.258 153.66 167.614 146.144 156.97 148.607L155.965 148.8L154.96 149.16L153.955 149.394L152.95 149.429L151.945 149.645L150.94 149.794L149.935 150L148.931 150.195L147.926 150.221L146.921 150.227L145.916 150.332L144.911 150.399L143.906 150.311L142.901 150.169L141.896 150.002L140.892 149.925L139.887 149.731L138.882 149.631C138.211 149.422 137.542 149.213 136.872 149.004L135.867 148.722C132.848 147.538 126.449 144.806 122.804 138.675C120.719 135.17 122.93 135.366 123.017 135.138Z" fill="black" fill-opacity="0.15"/>
<path fill-rule="evenodd" clip-rule="evenodd" d="M77.617 123.063C78.3516 123.155 78.5566 122.484 80.3 124.282C82.1962 132.106 82.1169 132.055 85.5445 139.368C92.5988 154.415 82.2515 137.922 82.1129 137.647C78.6259 130.733 78.5375 123.367 77.4884 129.236C75.7047 139.218 74.331 139.484 78.0561 149.204C78.3113 149.868 82.5108 160.826 79.0309 158.033C78.4219 157.545 73.7713 141.775 74.4315 151.394C74.4707 151.971 76.8985 189.938 72.7021 158.414C71.5817 149.996 74.0959 139.734 70.9164 147.61C70.7898 147.923 65.5112 160.998 67.7169 150.38C68.55 146.372 68.6916 146.493 71.3526 143.24C71.9173 142.419 72.6338 141.379 74.8586 131.284C75.2073 129.649 74.8716 129.715 74.3451 128.122C76.1639 126.37 77.1859 126.94 77.617 123.063Z" fill="#484E37"/>
<path fill-rule="evenodd" clip-rule="evenodd" d="M96.2425 30.1891C96.8284 32.1668 96.7651 32.1235 97.983 33.8319C96.7058 43.3149 98.2895 43.2948 97.7679 52.8643C98.182 53.615 98.597 54.3656 99.011 55.1163C97.7639 56.8819 97.8805 56.8557 97.2504 58.9398C97.1871 59.4162 96.4867 64.6456 96.3903 64.8827C94.3011 70.0217 94.1705 62.0268 93.3837 61.0993C85.9907 52.385 81.1472 42.4407 80.9864 41.8478C77.9134 30.4826 94.7472 63.8035 95.105 57.111C95.4989 49.7351 97.155 42.1693 93.3917 38.0523C93.3957 38.0493 95.0226 37.6886 95.1352 36.0938C95.4638 32.9244 90.2464 18.6903 90.7659 17.8009C92.9987 13.9764 96.0657 29.3772 96.2425 30.1891Z" fill="#444D32"/>
<path fill-rule="evenodd" clip-rule="evenodd" d="M75.98 88.819C77.41 90.1535 77.3879 90.1595 77.5236 90.261C78.0411 90.6459 78.1114 90.3384 78.6148 90.7132C70.1889 93.3731 67.0135 91.7332 61.4776 94.0585C60.4043 93.54 56.4481 91.6297 46.7912 96.5205C43.8378 98.0167 44.486 98.9513 41.4201 100.175C29.5133 104.933 41.9165 97.1364 42.1416 97.0048C41.9316 96.6662 41.7226 96.3275 41.5135 95.9889C37.7683 95.9205 38.0206 97.6138 34.3739 97.2219C33.775 97.1565 24.527 96.1617 27.4321 94.3067C28.8781 93.3842 40.3248 96.8109 35.5787 93.0114C28.0391 86.9731 39.2074 92.6386 39.4867 92.7803C44.697 95.4231 50.6328 92.6356 51.7352 92.324C53.4907 91.5694 53.3661 91.4719 54.4936 89.9294C59.0708 91.0649 63.7335 90.6459 64.4128 90.6409L66.5683 89.7365C69.6935 89.7526 69.5478 89.8119 72.6066 89.7666C74.4074 89.7395 74.2486 89.3054 75.98 88.819Z" fill="#40472F"/>
<path fill-rule="evenodd" clip-rule="evenodd" d="M115.393 107.572C121.961 105.942 121.228 112.107 127.8 110.705C127.351 112.738 127.43 112.744 128.617 114.39C137.718 119.899 136.237 123.404 142.919 123.066C151.686 122.625 156.408 126.754 151.96 126.42C149.218 126.213 137.409 122.922 146.683 128.574C157 134.863 157.194 135.307 156.765 136.223C156.36 137.088 155.483 138.016 146.046 130.984C143.952 129.585 143.968 129.6 141.541 129.52C139.832 125.916 139.505 126.139 129.918 117.845C128.349 117.066 128.403 117.133 126.59 117.386C124.307 111.871 122.895 113.16 118.401 109.38C118.276 109.275 118.27 109.444 116.559 110.271C116.17 109.372 115.781 108.473 115.393 107.572Z" fill="#444A36"/>
<path fill-rule="evenodd" clip-rule="evenodd" d="M54.6123 74.7989C47.4404 68.2441 46.7641 72.6937 46.7933 72.763C47.0284 73.3227 47.5127 72.5309 53.1953 76.8499C48.0966 78.0989 47.0193 80.7197 44.0409 76.2871C41.0242 71.7963 36.0812 68.6369 41.4985 69.48C42.5175 69.6378 51.7473 66.4654 61.1631 71.3813C63.3557 72.5259 67.532 77.9934 63.5075 77.077C58.8508 76.0168 58.4389 77.5452 54.6123 74.7989Z" fill="#7C9655"/>
<path fill-rule="evenodd" clip-rule="evenodd" d="M111.684 97.3143C112.754 97.8569 113.824 98.3986 114.895 98.9412C115.291 99.3854 115.688 99.8285 116.084 100.273C109.598 105.991 99.3115 108.929 98.2352 100.017C98.7055 97.6419 99.7034 90.3464 111.684 97.3143Z" fill="#748D52"/>
<path fill-rule="evenodd" clip-rule="evenodd" d="M73.4076 67.404C73.5824 67.612 74.5964 68.8168 76.3579 69.0892C76.6474 69.9805 77.0151 71.113 82.6415 78.9732C83.6464 79.0204 84.203 80.0524 84.1126 79.0415C84.0543 78.3843 83.567 78.6607 83.5057 77.9683C82.8585 73.3589 82.9319 72.557 82.9741 72.0867C83.163 70.0086 84.9065 69.9674 85.22 72.1038C86.6188 81.6371 85.9626 83.253 85.5998 84.1453C82.5641 81.8592 66.9151 78.4265 72.7152 77.4337C72.7152 77.4337 78.1335 78.9641 78.6048 79.0968C80.1483 79.7861 80.8367 81.808 80.7623 80.0605C80.7292 79.2767 79.5504 78.8476 79.5173 78.0638C75.6244 73.6895 75.6696 73.6734 75.3289 73.2976C71.7334 69.3213 66.9472 69.8981 68.8605 67.1869C70.8079 64.4295 62.8804 57.1873 65.7845 55.4157C66.7553 54.8238 66.697 55.6147 73.4076 67.404Z" fill="#3F4831"/>
<path fill-rule="evenodd" clip-rule="evenodd" d="M141.984 78.2115C141.817 78.2718 139.907 78.9661 139.907 78.9661C139.743 79.0938 139.983 79.133 140.987 81.3216C134.786 83.3223 134.814 83.2781 134.289 83.4831C131.698 84.493 139.082 85.7119 143.759 87.4363C146.076 88.2895 145.361 90.1294 142.913 89.8541C134.58 88.9175 129.727 84.8015 128.795 84.0107C129.607 82.8561 129.533 82.9364 130.395 81.9155C130.925 81.8642 131.299 82.6701 131.828 82.6189C134.139 82.3928 136.496 80.3077 136.835 80.0092C137.642 79.2958 136.208 78.5491 142.908 67.9948C143.019 67.819 146.888 65.1068 144.649 69.9212C143.024 73.4162 140.606 76.874 140.665 77.0136C140.897 77.5603 141.753 77.6648 141.984 78.2115Z" fill="#4E5A3A"/>
<path fill-rule="evenodd" clip-rule="evenodd" d="M123.66 69.9744C122.63 72.1319 122.457 72.1018 123.124 74.3748C118.35 77.5673 118.77 77.902 114.654 82.016C112.894 84.8889 112.891 84.8688 112.776 85.118C109.337 86.547 109.424 86.4716 106.559 88.7376L105.101 88.0965C105.353 87.6162 106.03 86.3239 109.453 82.8962C111.286 82.3164 111.229 82.3064 112.737 81.0111C125.053 67.0392 122.228 64.9852 125.804 61.9394C131.373 57.1974 124.003 69.4047 123.66 69.9744Z" fill="#434934"/>
<path fill-rule="evenodd" clip-rule="evenodd" d="M55.601 27.7031C56.008 31.9859 56.0723 31.9014 56.0472 36.1812C55.8261 38.4683 55.9286 38.5628 57.8529 39.8933C54.986 48.9382 59.0678 55.8016 59.7712 56.9843C59.5954 57.6626 59.4205 58.3409 59.2457 59.0182C55.185 55.9804 54.5037 55.6016 54.0605 55.3544C54.5389 54.2058 55.0172 53.0583 55.4965 51.9107C53.7711 41.5493 52.5914 39.9063 51.9683 39.0391C52.514 38.3548 53.0606 37.6715 53.6063 36.9871C53.6254 33.3987 53.752 33.4932 53.75 29.8143C54.367 29.1109 54.984 28.4065 55.601 27.7031Z" fill="#414A32"/>
<path fill-rule="evenodd" clip-rule="evenodd" d="M48.4191 128.831C54.0927 127.983 61.2193 126.146 60.7028 128.283C59.8275 131.899 59.5512 131.743 58.8809 135.353L57.4862 135.203C48.802 135.697 48.3578 135.197 48.4945 134.296C49.0633 130.539 49.3928 130.619 49.3878 130.291C49.3748 129.324 48.4332 129.812 48.4191 128.831Z" fill="black" fill-opacity="0.15"/>
<path fill-rule="evenodd" clip-rule="evenodd" d="M150.592 69.7765C151.247 70.3171 151.901 70.8578 152.555 71.3984C154.557 71.2828 154.374 71.0115 155.902 69.8559L156.93 72.0244C163.428 70.9864 164.807 71.4114 163.74 72.7932C163.32 73.3358 159.191 74.3718 156.983 74.197C150.828 73.7086 150.469 75.3466 146.839 78.0376C146.536 78.8616 146.231 79.6866 145.928 80.5107C143.332 80.2172 143.444 80.4514 140.987 81.3216C139.983 79.133 139.743 79.0938 139.907 78.9661C139.907 78.9661 141.817 78.2718 141.984 78.2115C146.928 74.5859 147.612 75.228 150.592 69.7765Z" fill="#454B34"/>
<path fill-rule="evenodd" clip-rule="evenodd" d="M95.7772 97.2872C90.0504 95.9216 91.3116 99.0277 91.6593 99.1231C93.5535 99.6396 93.6318 99.1774 95.3261 100.175C95.114 100.821 93.0902 106.99 86.8318 99.93C79.2851 91.4157 99.7867 91.8809 95.7772 97.2872Z" fill="#799555"/>
<path fill-rule="evenodd" clip-rule="evenodd" d="M100.552 113.209C100.557 112.983 100.694 107.412 103.058 111.937C104.03 113.798 104.218 113.539 105.853 115.087C105.415 115.752 104.978 116.418 104.54 117.083C105.926 123.53 105.39 123.645 108.695 129.305C108.126 129.769 107.557 130.232 106.989 130.697C106.279 130.549 105.57 130.401 104.861 130.253C104.511 129.599 104.16 128.945 103.809 128.291C103.813 126.119 103.666 126.199 101.833 115.101C101.406 114.471 100.98 113.84 100.552 113.209Z" fill="#3D3D2E"/>
<path fill-rule="evenodd" clip-rule="evenodd" d="M86.06 105.566C86.4037 105.25 86.3313 104.622 86.675 104.305C87.5764 103.476 87.6316 104.219 89.6092 105.231C89.769 105.312 89.759 105.301 91.6301 106.188C90.9186 107.98 90.1881 110.804 82.9017 116.608L82.1923 115.217C82.3068 114.664 82.8133 112.212 83.3981 108.252C85.5777 108.041 85.4942 107.659 86.06 105.566Z" fill="#759051"/>
<path fill-rule="evenodd" clip-rule="evenodd" d="M94.8216 75.435C97.4745 77.3684 96.6685 77.8859 98.9747 84.9643L97.3498 84.0659L96.6766 83.2198C95.3954 84.4518 95.93 84.6689 95.5622 86.0114C94.7934 89.2682 96.0053 90.4369 92.652 91.1735C92.4531 89.2461 92.3656 89.2431 92.437 89.0914C94.1604 85.4487 94.4126 84.9532 91.5859 82.0381C92.9234 78.53 92.3486 78.319 94.8216 75.435Z" fill="#7C9556"/>
<path fill-rule="evenodd" clip-rule="evenodd" d="M114.495 66.0765C114.327 74.7205 110.141 74.6371 112.737 81.0111C111.229 82.3064 111.286 82.3164 109.453 82.8962C109.406 81.5899 109.212 76.1575 112.536 66.8473C113.381 64.4808 114.361 66.0775 114.495 66.0765Z" fill="#5D6A42"/>
<path fill-rule="evenodd" clip-rule="evenodd" d="M97.7679 52.8643C106.45 41.3373 104.505 39.5396 105.741 39.6049C107.091 39.6762 109.266 41.3966 99.011 55.1163C98.597 54.3656 98.182 53.615 97.7679 52.8643Z" fill="#515F3A"/>
<path fill-rule="evenodd" clip-rule="evenodd" d="M127.8 110.705C140.578 108.701 145.332 113.73 140.911 113.399C133.744 112.863 130.553 111.739 128.617 114.39C127.43 112.744 127.351 112.738 127.8 110.705Z" fill="#50593D"/>
<path fill-rule="evenodd" clip-rule="evenodd" d="M75.5711 106.737C73.3212 108.786 73.4407 108.833 73.2418 109C68.9268 106.18 65.2248 109.292 62.3036 108.576C59.903 107.987 64.1436 103.057 75.5711 106.737Z" fill="#495236"/>
<path fill-rule="evenodd" clip-rule="evenodd" d="M126.59 117.386C128.403 117.133 128.349 117.066 129.918 117.845C129.144 120.294 129.991 120.217 133.129 127.23C136.021 133.695 127.68 126.145 126.59 117.386Z" fill="#4F573C"/>
<path fill-rule="evenodd" clip-rule="evenodd" d="M95.1352 36.0938C95.0226 37.6886 93.3957 38.0493 93.3917 38.0523C92.7054 37.3399 88.4718 32.9455 86.3927 27.8467C82.0576 17.2161 92.2702 34.1283 95.1352 36.0938Z" fill="#444D32"/>
<path fill-rule="evenodd" clip-rule="evenodd" d="M100.552 113.209C100.98 113.84 101.406 114.471 101.833 115.101C98.7577 117.296 98.1749 121.088 96.4073 124.096C94.078 128.063 92.9595 120.138 100.552 113.209Z" fill="#51593B"/>
<path fill-rule="evenodd" clip-rule="evenodd" d="M114.654 82.016C115.112 82.0119 115.34 82.7797 115.799 82.7757C116.651 82.7707 127.955 76.045 123.851 81.0754C120.589 85.0718 113.719 85.113 112.776 85.118C112.891 84.8688 112.894 84.8889 114.654 82.016Z" fill="#566140"/>
<path fill-rule="evenodd" clip-rule="evenodd" d="M141.541 129.52C143.968 129.6 143.952 129.585 146.046 130.984C145.753 131.854 145.216 131.375 144.904 132.302C144.881 132.369 144.872 132.398 145.349 133.051C146.167 134.168 147.054 135.235 147.869 136.353C151.672 141.573 143.339 137.809 141.541 129.52Z" fill="#586340"/>
<path fill-rule="evenodd" clip-rule="evenodd" d="M155.902 69.8559C164.394 62.7102 166.267 64.736 165.751 65.8373C164.66 68.1697 163.197 66.3468 156.93 72.0244L155.902 69.8559Z" fill="#576340"/>
<path fill-rule="evenodd" clip-rule="evenodd" d="M105.853 115.087C106.501 115.656 114.374 122.581 111.709 124.151C111.015 124.559 111.142 123.913 104.54 117.083C104.978 116.418 105.415 115.752 105.853 115.087Z" fill="#424633"/>
<path fill-rule="evenodd" clip-rule="evenodd" d="M54.4936 89.9294C53.3661 91.4719 53.4907 91.5694 51.7352 92.324C50.4329 91.4418 50.7786 91.0006 49.1838 90.5956C48.812 90.5022 42.03 88.7819 45.5099 87.5157C47.1358 86.9238 53.8043 89.648 54.4936 89.9294Z" fill="#4E5838"/>
<path fill-rule="evenodd" clip-rule="evenodd" d="M73.4076 67.404C73.4136 66.8191 74.2959 66.4785 74.3019 65.8936C74.3652 59.3277 73.2367 59.386 73.5985 58.963C75.8775 56.297 76.3258 68.2501 76.3579 69.0892C74.5964 68.8168 73.5824 67.612 73.4076 67.404Z" fill="#556440"/>
<path fill-rule="evenodd" clip-rule="evenodd" d="M104.861 130.253C105.57 130.401 106.279 130.549 106.989 130.697L106.862 131.42C106.709 133.592 107.449 143.573 104.77 141.299C104.17 140.79 104.49 140.661 104.648 135.322C104.795 134.277 104.393 134.334 104.534 133.331C104.557 133.163 104.58 133.181 105.165 131.295L104.861 130.253Z" fill="#36372D"/>
<path fill-rule="evenodd" clip-rule="evenodd" d="M91.5859 82.0381C94.4126 84.9532 94.1604 85.4487 92.437 89.0914C92.3656 89.2431 92.4531 89.2461 92.652 91.1735C88.4677 90.4208 90.378 86.1279 91.5859 82.0381Z" fill="#6F8451"/>
<path fill-rule="evenodd" clip-rule="evenodd" d="M150.592 69.7765C150.935 69.1283 155.561 60.3869 156.797 63.0227C157.115 63.703 156.793 63.712 152.555 71.3984C151.901 70.8578 151.247 70.3171 150.592 69.7765Z" fill="#535C3D"/>
<path fill-rule="evenodd" clip-rule="evenodd" d="M74.3451 128.122C74.8716 129.715 75.2073 129.649 74.8586 131.284C68.8152 132.122 67.1893 139.054 66.925 134.334C66.8879 133.665 71.2189 129.394 74.3451 128.122Z" fill="#54623D"/>
<path fill-rule="evenodd" clip-rule="evenodd" d="M96.2425 30.1891C96.4535 29.755 97.4172 30.2042 97.6283 29.7711C98.2372 28.519 98.1276 27.0298 98.4382 25.6732C98.5256 25.2953 99.0592 24.2814 99.1175 24.2553C99.8179 23.9327 102.447 24.609 97.983 33.8319C96.7651 32.1235 96.8284 32.1668 96.2425 30.1891Z" fill="#4E5B39"/>
<path fill-rule="evenodd" clip-rule="evenodd" d="M54.6123 74.7989C54.14 75.4822 53.6676 76.1655 53.1953 76.8499C47.5127 72.5309 47.0284 73.3227 46.7933 72.763C46.7641 72.6937 47.4404 68.2441 54.6123 74.7989Z" fill="#4C5738"/>
<path fill-rule="evenodd" clip-rule="evenodd" d="M123.66 69.9744C124.078 69.7845 124.34 70.9934 124.757 70.8035C126.011 70.2347 126.728 68.8621 127.854 68.0702C128.13 67.8763 128.559 67.7627 128.855 67.9235C129.462 68.2521 130.393 69.5192 123.124 74.3748C122.457 72.1018 122.63 72.1319 123.66 69.9744Z" fill="#505B40"/>
<path fill-rule="evenodd" clip-rule="evenodd" d="M146.839 78.0376C151.744 79.341 151.86 77.6839 153.825 78.3682C154.946 78.7581 154.672 82.635 145.928 80.5107C146.231 79.6866 146.536 78.8616 146.839 78.0376Z" fill="#525C3D"/>
<path fill-rule="evenodd" clip-rule="evenodd" d="M77.7607 110.4C76.5046 115.442 72.9393 117.389 72.5675 117.21C71.2199 116.56 74.8466 112.393 74.7491 112.142C74.5803 111.712 73.8055 111.746 73.6367 111.316C75.6193 110.298 75.5269 110.004 77.7607 110.4Z" fill="#53603D"/>
<path fill-rule="evenodd" clip-rule="evenodd" d="M66.5683 89.7365L64.4128 90.6409C58.5735 86.2596 58.4951 86.2807 58.477 86.0737C58.2167 83.1464 66.0106 89.2963 66.5683 89.7365Z" fill="#657744"/>
<path fill-rule="evenodd" clip-rule="evenodd" d="M59.8557 95.612C58.7422 96.6631 56.7375 98.8417 56.4733 99.1281C54.2635 101.529 51.5674 100.935 53.2807 99.0407C53.6294 98.6548 57.2983 94.6001 58.0951 94.6765C58.7564 94.7398 59.1944 95.5477 59.8557 95.612Z" fill="#4D5938"/>
<path fill-rule="evenodd" clip-rule="evenodd" d="M103.809 128.291C104.16 128.945 104.511 129.599 104.861 130.253L105.165 131.295C104.58 133.181 104.557 133.163 104.534 133.331C104.393 134.334 104.795 134.277 104.648 135.322C104.482 135.483 100.038 139.774 101.917 134.355C102.43 132.879 103.663 128.777 103.809 128.291Z" fill="#5C6A42"/>
<path fill-rule="evenodd" clip-rule="evenodd" d="M55.4965 51.9107C55.0172 53.0583 54.5389 54.2058 54.0605 55.3544C48.5889 50.4928 50.0299 49.3422 50.5866 49.309C53.5148 49.1322 52.5361 51.7549 55.4965 51.9107Z" fill="#56663F"/>
<path fill-rule="evenodd" clip-rule="evenodd" d="M99.1526 85.8848C99.1989 86.4455 99.8661 94.6564 97.1328 92.6175C96.354 92.0367 96.745 91.8427 97.0354 88.0744C97.5348 86.4636 97.7569 86.6847 99.1526 85.8848Z" fill="#7D9956"/>
<path fill-rule="evenodd" clip-rule="evenodd" d="M56.0472 36.1812C56.5667 35.7371 56.848 36.1029 57.5344 34.9101C64.9615 21.9983 57.9996 39.5215 57.8529 39.8933C55.9286 38.5628 55.8261 38.4683 56.0472 36.1812Z" fill="#56663E"/>
<path fill-rule="evenodd" clip-rule="evenodd" d="M95.7772 97.2872C95.4105 98.7232 95.7029 98.6991 95.3261 100.175C93.6318 99.1774 93.5535 99.6396 91.6593 99.1231C91.3116 99.0277 90.0504 95.9216 95.7772 97.2872Z" fill="#434B2F"/>
<path fill-rule="evenodd" clip-rule="evenodd" d="M108.695 129.305C110.052 131.742 110.319 131.569 110.643 134.275C110.269 134.222 108.871 134.022 106.862 131.42L106.989 130.697C107.557 130.232 108.126 129.769 108.695 129.305Z" fill="#525C3E"/>
<path fill-rule="evenodd" clip-rule="evenodd" d="M103.768 98.3654C104.113 98.4398 111 99.9371 106.623 101.731C105.424 102.222 105.538 101.647 103.957 100.836C103.644 99.4899 103.67 99.6175 103.768 98.3654Z" fill="#37382A"/>
<path fill-rule="evenodd" clip-rule="evenodd" d="M103.768 98.3654C103.67 99.6175 103.644 99.4899 103.957 100.836C103.69 100.798 103.793 100.77 100.643 100.247C100.741 96.4752 102.928 98.276 103.768 98.3654Z" fill="#525D3A"/>
<path fill-rule="evenodd" clip-rule="evenodd" d="M98.9747 84.9643L99.1526 85.8848C97.7569 86.6847 97.5348 86.4636 97.0354 88.0744C96.955 87.4765 97.0997 87.574 97.0163 86.953C96.8243 85.515 95.5752 86.0204 95.5622 86.0114C95.93 84.6689 95.3954 84.4518 96.6766 83.2198L97.3498 84.0659L98.9747 84.9643Z" fill="#647646"/>
<path fill-rule="evenodd" clip-rule="evenodd" d="M51.9683 39.0391C52.514 38.3548 53.0606 37.6715 53.6063 36.9871C53.3872 36.8927 48.4392 34.3192 51.9683 39.0391Z" fill="#54623E"/>
<path fill-rule="evenodd" clip-rule="evenodd" d="M83.6192 105.155C84.4321 105.292 85.246 105.43 86.06 105.566C85.4942 107.659 85.5777 108.041 83.3981 108.252C83.4715 107.22 83.5448 106.187 83.6192 105.155Z" fill="#58673D"/>
<path fill-rule="evenodd" clip-rule="evenodd" d="M114.895 98.9412C116.551 98.1956 117.014 97.3746 117.841 99.0397L116.084 100.273C115.688 99.8285 115.291 99.3854 114.895 98.9412Z" fill="#555F40"/>
<path fill-rule="evenodd" clip-rule="evenodd" d="M79.5173 78.0638C79.5504 78.8476 80.7292 79.2767 80.7623 80.0605C80.8367 81.808 80.1483 79.7861 78.6048 79.0968L79.5173 78.0638Z" fill="#697B4B"/>
<path fill-rule="evenodd" clip-rule="evenodd" d="M83.5057 77.9683C83.567 78.6607 84.0543 78.3843 84.1126 79.0415C84.203 80.0524 83.6464 79.0204 82.6415 78.9732L83.5057 77.9683Z" fill="#697E4A"/>
<path fill-rule="evenodd" clip-rule="evenodd" d="M53.75 29.8143C54.367 29.1109 54.984 28.4065 55.601 27.7031C54.3087 28.5451 54.2725 28.4095 53.75 29.8143Z" fill="#627745"/>
<path fill-rule="evenodd" clip-rule="evenodd" d="M42.1416 97.0048C41.9316 96.6662 41.7226 96.3275 41.5135 95.9889L42.1416 97.0048Z" fill="#596E40"/>
<path fill-rule="evenodd" clip-rule="evenodd" d="M106.559 88.7376L105.101 88.0965C105.627 88.8763 105.604 88.8703 106.559 88.7376Z" fill="#647447"/>
</svg>
