<svg width="90" height="90" viewBox="0 0 90 90" fill="none" xmlns="http://www.w3.org/2000/svg">
<path fill-rule="evenodd" clip-rule="evenodd" d="M53.6837 14.0785C55.4202 12.7219 58.4429 6.27162 68.5681 20.2455C71.9485 24.9122 70.3296 31.3133 65.6157 31.7936C63.4914 32.0097 63.832 34.8475 66.7623 37.1336C66.9924 36.7779 67.2215 36.4211 67.4506 36.0644C68.344 31.9896 70.1809 33.2085 72.4047 29.7396C75.4867 24.9313 77.4362 22.1206 83.2213 28.8001C90.4725 37.1718 82.7781 37.5426 79.665 38.1817C86.1867 45.9203 83.0414 47.0709 78.5757 56.1048C76.7397 59.8178 73.5312 61.6296 71.7847 64.5789C69.4383 61.2719 68.0485 62.5993 66.0327 59.0732C63.8079 55.1843 63.4975 59.0009 63.003 60.4449C60.8446 66.7475 58.2459 64.595 54.0385 69.6687C50.659 73.7424 49.7265 73.4189 49.7968 76.3773C49.9827 84.1681 31.8758 81.5926 34.2543 73.2591C35.3778 69.326 33.3801 70.0345 31.6346 69.2386C25.135 66.2752 32.742 61.6889 32.119 60.5293C31.9552 60.2238 30.2117 56.976 29.7655 56.8946C29.259 56.8022 28.7787 57.382 28.2723 57.2895C28.1939 56.9911 27.7236 55.1813 27.4131 53.5343C27.7216 53.4358 28.8511 53.8448 29.044 52.5847C29.8731 47.1593 30.6407 45.7253 30.0981 44.7375C28.222 41.3279 27.398 42.5238 23.5634 42.3107C19.4685 40.3844 16.1202 39.1242 20.8743 30.4521C24.6627 23.5425 31.7069 29.8311 30.0087 26.1301C28.7887 23.4722 22.5505 17.468 17.8787 32.2468C17.6989 32.8156 17.3642 38.9293 11.4937 38.1244C9.02874 37.7867 2.24581 33.0447 3.06881 27.1008C4.74897 14.9629 8.90916 17.9041 13.4251 16.7335C13.9255 16.6038 24.3522 12.4115 25.8023 15.9718C26.6042 17.9393 24.7531 19.4788 26.5288 20.1762C33.377 22.8653 30.9261 25.3996 33.7016 28.0927C34.3829 28.7529 37.2047 28.986 37.5182 29.0121C40.8886 26.7632 41.4131 26.9008 44.4408 29.5306C44.7774 29.8241 47.5409 30.5958 46.9199 28.1399C43.9324 16.3215 45.6406 15.9597 46.6133 15.9878C48.803 16.0511 46.948 17.4399 47.8333 23.0009C48.1197 23.0592 48.4071 23.1175 48.6935 23.1758C51.486 18.7191 50.7474 18.3985 53.6837 14.0785Z" fill="#686459"/>
<path fill-rule="evenodd" clip-rule="evenodd" d="M22.6998 44.1544C23.1872 44.8387 24.53 46.7222 27.4131 53.5343C27.7236 55.1813 28.1939 56.9911 28.2723 57.2895C30.2439 67.873 7.22062 59.4054 8.75407 53.339C9.55295 50.1806 10.7116 51.0288 19.9374 43.665C20.1133 43.5243 20.1374 43.7002 22.6998 44.1544Z" fill="#5F5B4F"/>
<path fill-rule="evenodd" clip-rule="evenodd" d="M71.7847 64.5789C83.0685 64.594 79.2581 71.0661 71.6129 80.2699C66.5413 86.3745 64.3878 80.0176 60.8566 75.2997C54.1279 66.309 70.2974 64.6623 71.7847 64.5789Z" fill="#605C51"/>
<path fill-rule="evenodd" clip-rule="evenodd" d="M55.9657 63.3649C55.6682 63.999 55.006 65.4109 50.4238 70.1409C47.2986 73.3666 46.7298 70.8513 37.5451 68.5773C31.4314 67.0639 31.2677 65.6671 32.6353 64.3749C36.3936 60.8236 50.06 55.9389 55.9657 63.3649Z" fill="#ECEBE4"/>
<path fill-rule="evenodd" clip-rule="evenodd" d="M41.1657 17.6648C38.4917 20.8312 35.473 27.2374 31.6736 19.0747C31.3681 18.4185 28.4097 12.0626 29.7713 10.2277C34.6269 3.68389 51.8405 8.25508 45.4344 13.6463C43.1373 15.5787 43.0448 15.3928 41.1657 17.6648Z" fill="#696256"/>
<path fill-rule="evenodd" clip-rule="evenodd" d="M56.7496 45.2692C61.5409 39.5484 62.5809 35.8524 67.8455 41.119C75.9017 49.1781 80.5985 49.4043 76.5508 51.9004C73.6759 51.9134 68.1158 52.8379 62.7879 51.0834C57.7715 49.4314 54.8614 50.177 56.7496 45.2692Z" fill="#E7E8E3"/>
<path fill-rule="evenodd" clip-rule="evenodd" d="M58.6336 26.3419C53.0907 24.3593 53.1258 24.3743 52.6475 24.2005C51.932 23.9422 50.1685 23.0449 56.1194 15.3475C59.8636 10.5029 70.8359 24.9853 67.0284 28.5627C66.0296 29.5023 59.2727 26.6143 58.6336 26.3419Z" fill="#E5E4E0"/>
<path fill-rule="evenodd" clip-rule="evenodd" d="M51.4084 35.2803C51.4496 48.2302 54.2572 47.7157 54.4502 51.2951C54.5456 53.0838 51.9731 55.9377 51.6677 56.2774C50.8889 57.1416 42.4056 57.3847 41.5957 57.4078C42.0117 56.9325 45.373 53.0869 46.7779 51.4529C47.5908 50.1627 49.27 48.4935 49.5082 48.2564L48.251 47.0354C49.8729 39.2737 40.5928 31.7271 47.5697 32.4797C48.3395 32.5621 48.4691 32.4104 51.4084 35.2803Z" fill="#E1E0D5"/>
<path fill-rule="evenodd" clip-rule="evenodd" d="M19.9558 22.4369C13.9305 32.5531 15.8318 38.2116 9.86879 34.7467C4.56903 31.6678 5.93868 25.8344 6.12961 25.0225C14.9073 22.2239 14.7314 21.8852 15.5052 21.7003L16.6829 23.1343L17.5149 22.1987L18.4565 21.1245L19.9558 22.4369Z" fill="#E4E3DE"/>
<path fill-rule="evenodd" clip-rule="evenodd" d="M32.2031 42.1782C37.7662 35.353 40.7768 26.0519 42.2781 32.3083C43.505 37.4261 43.4478 37.3567 45.3731 42.2967C46.8393 46.056 43.7312 46.05 39.582 45.5616C35.1284 45.0381 34.024 46.2801 32.2031 42.1782Z" fill="#E2E1DB"/>
<path fill-rule="evenodd" clip-rule="evenodd" d="M13.3245 56.5831C9.20246 52.9393 12.8823 52.3193 19.5708 47.322C20.3868 46.7131 22.8568 45.6781 26.0262 58.2813C26.7035 60.9734 16.8979 58.4763 13.3245 56.5831Z" fill="#E8E6DF"/>
<path fill-rule="evenodd" clip-rule="evenodd" d="M48.251 47.0354L49.5082 48.2564C49.27 48.4935 47.5908 50.1627 46.7779 51.4529C43.3211 49.3316 43.4571 51.5757 40.8173 54.6235C40.6415 54.712 38.6176 55.7269 38.6176 55.7269C37.5594 56.5308 39.0025 56.3429 39.7129 57.4774C34.6885 59.448 32.8043 60.4911 31.6286 55.2797C29.2963 44.9415 41.3425 50.2983 48.251 47.0354Z" fill="#E1E0D9"/>
<path fill-rule="evenodd" clip-rule="evenodd" d="M35.6783 32.1675C34.8181 33.8316 34.9256 33.7713 33.8494 35.4303C23.8196 35.2274 22.6117 37.4722 21.5325 38.2088C20.1658 33.519 23.2911 27.5802 30.6508 29.9989C33.2665 30.8571 33.164 30.8762 35.6783 32.1675Z" fill="#ECEDEC"/>
<path fill-rule="evenodd" clip-rule="evenodd" d="M41.7505 13.212C41.0943 13.8923 40.4 14.5345 39.7428 15.2148C38.0988 16.9191 35.5364 21.7797 34.4139 19.2484C32.9156 15.869 29.5472 10.517 35.5906 9.9482C36.1483 9.89594 40.4563 9.49101 42.5846 10.1693C44.7361 10.8556 43.28 11.5771 41.7505 13.212Z" fill="#E4E4DC"/>
<path fill-rule="evenodd" clip-rule="evenodd" d="M73.9171 66.9714C68.6314 75.4958 66.4639 76.9578 65.5695 77.5608C64.3988 75.8012 64.4079 75.8113 64.3054 75.6606C63.7517 74.8446 63.7306 74.9632 63.1256 74.095C58.7856 67.8597 71.2642 66.8277 73.9171 66.9714Z" fill="#EAECE8"/>
<path fill-rule="evenodd" clip-rule="evenodd" d="M76.8656 39.1562C79.2573 41.9629 82.08 43.7998 80.1024 46.6848C78.791 48.5981 70.1792 39.6456 69.8727 39.1703C68.1493 36.4973 70.8464 32.8506 75.4759 37.3716C75.6045 37.4982 75.5784 37.5042 76.8656 39.1562Z" fill="#E6E4DB"/>
<path fill-rule="evenodd" clip-rule="evenodd" d="M19.9558 22.4369L18.4565 21.1245L17.5149 22.1987L16.6829 23.1343L15.5052 21.7003C14.7314 21.8852 14.9073 22.2239 6.12961 25.0225C7.00185 20.8452 7.23128 20.3499 11.4377 19.7409C17.1796 18.9099 21.4503 16.8037 22.6572 16.9212C24.7614 17.1252 20.4563 21.829 19.9558 22.4369Z" fill="#D9D6CC"/>
<path fill-rule="evenodd" clip-rule="evenodd" d="M54.622 43.3867C53.8231 39.8576 53.9236 30.887 57.7693 31.919C66.0455 34.1388 59.981 37.4027 56.4257 41.9236C55.3214 43.3285 55.1294 42.9757 54.622 43.3867Z" fill="#E3E3DD"/>
<path fill-rule="evenodd" clip-rule="evenodd" d="M23.5634 42.3107C27.398 42.5238 28.222 41.3279 30.0981 44.7375C30.6407 45.7253 29.8731 47.1593 29.044 52.5847C28.8511 53.8448 27.7216 53.4358 27.4131 53.5343C24.53 46.7222 23.1872 44.8387 22.6998 44.1544C22.9872 43.5394 23.276 42.9247 23.5634 42.3107Z" fill="#DFDED6"/>
<path fill-rule="evenodd" clip-rule="evenodd" d="M39.5454 77.6386C36.6754 75.9564 35.7158 75.7554 37.0895 72.6935C37.9778 70.7129 40.5081 71.8705 40.7593 71.967C41.2949 72.173 46.8328 75.1103 46.88 75.2077C48.9732 79.5297 40.1513 77.7602 39.5454 77.6386Z" fill="#ECEDE7"/>
<path fill-rule="evenodd" clip-rule="evenodd" d="M77.7214 35.5822C75.8885 34.4024 75.8996 34.4105 75.7418 34.308C72.6236 32.2992 73.9491 31.4008 76.1156 28.4334C78.6238 24.9987 83.5256 32.9504 83.1388 34.3291C82.9418 35.0345 78.1646 35.5359 77.7214 35.5822Z" fill="#EAE9E6"/>
<path fill-rule="evenodd" clip-rule="evenodd" d="M73.9171 66.9714C75.5209 67.507 75.5378 67.455 75.6483 67.5494C76.3668 68.1624 77.3395 68.9905 70.3265 78.0807C67.1822 82.1555 65.7393 77.7507 65.5695 77.5608C66.4639 76.9578 68.6314 75.4958 73.9171 66.9714Z" fill="#CFCDC1"/>
<path fill-rule="evenodd" clip-rule="evenodd" d="M58.7785 62.8907C55.4664 58.1657 53.4908 58.8942 54.3902 57.2301C56.8622 52.6549 57.6942 51.3395 62.1016 54.1401C62.181 54.1904 61.5891 59.5042 58.7785 62.8907Z" fill="#E2E0D4"/>
<path fill-rule="evenodd" clip-rule="evenodd" d="M33.8494 35.4303C31.3482 40.6206 30.2989 39.9323 24.5218 39.5806C22.8889 39.4821 23.072 39.1383 21.5325 38.2088C22.6117 37.4722 23.8196 35.2274 33.8494 35.4303Z" fill="#D0C5AD"/>
<path fill-rule="evenodd" clip-rule="evenodd" d="M68.0435 54.7229C68.342 54.7259 71.7777 54.7642 71.7777 54.7642C73.0348 54.739 74.2919 54.3481 75.541 54.4988C75.8455 54.535 75.7278 55.2395 76.0323 55.2767C75.7499 55.7248 72.9654 60.1523 71.7978 60.3664C69.9357 60.707 67.2055 55.7931 66.9321 55.3017L68.0435 54.7229Z" fill="#DEDCD0"/>
<path fill-rule="evenodd" clip-rule="evenodd" d="M46.7779 51.4529C45.373 53.0869 42.0117 56.9325 41.5957 57.4078L39.7129 57.4774C39.0025 56.3429 37.5594 56.5308 38.6176 55.7269C38.6176 55.7269 40.6415 54.712 40.8173 54.6235C43.4571 51.5757 43.3211 49.3316 46.7779 51.4529Z" fill="#C9C2B1"/>
<path fill-rule="evenodd" clip-rule="evenodd" d="M37.7523 53.1189C37.288 53.3892 37.1886 54.0896 36.7243 54.36C35.0281 55.3467 33.5509 51.7252 35.6551 51.8829C35.6551 51.8829 37.5845 53.0195 37.7523 53.1189Z" fill="#D7D4CE"/>
</svg>
