<svg width="130" height="130" viewBox="0 0 130 130" fill="none" xmlns="http://www.w3.org/2000/svg">
<path fill-rule="evenodd" clip-rule="evenodd" d="M28.0121 13.9469C65.2541 -8.65196 100.605 5.71686 117.806 38.9483C136.632 88.1062 97.8254 127.949 53.8597 122.655C12.0063 115.474 -5.33695 76.3672 4.84352 44.8299C10.9522 25.907 25.1271 16.1757 25.7752 15.617C27.8584 14.0484 27.8373 14.0855 28.0121 13.9469Z" fill="#5E4C48"/>
<path fill-rule="evenodd" clip-rule="evenodd" d="M120.357 64.8813C119.872 71.3257 119.85 87.1013 103.224 104.125C100.737 106.672 86.6904 121.054 61.9703 120.82C56.3179 120.766 56.4204 121.105 55.9481 121.005C54.7824 120.761 55.0568 119.931 50.986 119.763C48.9139 119.679 37.3396 116.139 29.9377 110.926C29.7779 110.814 29.6804 110.629 29.5257 110.509C28.2836 109.55 27.8375 110.216 26.9753 108.843C26.6437 108.314 26.086 109.014 20.9661 103.873C2.67721 85.5096 4.34329 62.6616 4.62165 58.839C4.74324 57.1839 5.03066 55.5369 5.04172 53.8769C5.04775 52.8639 5.06581 50.0623 8.65927 41.7429C9.19186 40.5119 8.69745 39.8447 8.73263 39.7653C8.82306 39.5623 8.8693 39.6156 10.4882 37.6229C10.7856 37.2561 10.1455 36.9898 13.4114 32.5C17.0631 27.4816 16.3275 26.8063 18.073 25.9441C19.5652 25.2086 34.3692 4.67178 64.981 5.66259C68.0117 5.76107 86.7065 6.36602 100.244 19.5461C102.292 21.5398 102.345 21.3317 104.41 23.4571C107.632 26.7772 107.914 26.4064 108.167 26.7129C108.352 26.938 107.905 27.1791 109.91 29.9084C114.867 36.6532 113.972 37.0863 114.417 37.648C119.408 43.9265 120.257 62.6535 120.357 64.8813Z" fill="#BF716A"/>
<path fill-rule="evenodd" clip-rule="evenodd" d="M76.9862 9.80672C80.5636 11.1161 93.3066 13.8212 105.579 28.3639C140.037 69.2013 98.0094 133.363 44.9837 115.777C-8.26802 98.1149 -4.20127 22.0371 49.8594 9.38165C62.1974 6.49261 74.869 9.33242 76.9862 9.80672Z" fill="#5A3834"/>
<path fill-rule="evenodd" clip-rule="evenodd" d="M113.893 75.8497C93.8602 141.053 8.96368 119.866 9.13551 62.8645C9.28524 13.3328 77.7278 -12.0636 108.449 36.5949C118.065 51.8229 114.435 72.7255 113.893 75.8497Z" fill="#C67369"/>
<path fill-rule="evenodd" clip-rule="evenodd" d="M21.5999 52.7574C23.2731 49.8573 23.3665 50.005 25.718 47.7269C27.8835 45.6287 24.3764 35.6372 34.7991 32.6004C41.0826 30.7696 46.7793 35.1378 48.0163 40.7269C49.0403 45.3504 51.3998 41.3972 55.98 42.597C57.6863 43.0432 59.6579 45.3192 61.728 42.6653C63.2554 40.7058 55.8936 30.2249 68.0296 25.7923C74.903 23.2821 82.0286 31.7352 79.7063 37.648C79.1074 39.1724 76.2867 40.6717 81.0368 42.8141C82.4657 43.4582 82.941 44.9474 85.0412 45.0147C101.768 45.5534 93.6842 60.3855 94.5896 61.6325C94.9745 62.1631 100.004 64.0211 100.144 69.9007C100.291 76.1772 95.3011 77.2062 94.9866 78.8924C94.0842 83.7218 94.8127 86.8079 87.0199 89.7311C83.3701 89.9572 82.4074 88.5795 80.8247 91.9107C76.566 100.872 66.898 98.0153 64.2894 92.8341C63.8131 91.8896 63.5548 90.8475 63.1006 89.8918C62.9237 89.518 62.7992 89.2567 57.9345 89.9622C55.4515 90.3229 59.2097 101.216 47.8967 101.978C39.6255 102.534 34.6674 90.338 42.3015 85.4362C46.7713 82.5662 41.0053 82.2688 40.9108 82.3039C40.7048 82.3813 35.1749 86.2773 29.1235 82.4989C25.0688 79.9666 22.5425 72.4058 27.8594 66.9232C31.2157 63.4624 18.7089 64.9607 21.5999 52.7574Z" fill="#322F38"/>
<path fill-rule="evenodd" clip-rule="evenodd" d="M117.806 38.9483L119.246 38.8267L119.792 39.7542L120.25 40.7712L120.863 41.764L121.359 42.7689L121.911 43.7738L122.457 44.7787L123.033 45.7835L123.576 46.7884L123.987 47.7933L124.447 48.7982C124.525 49.1549 130.773 63.369 126.869 81.883C118.339 122.341 73.2109 131.606 55.938 124.823C54.4156 124.225 54.6626 124.03 53.8597 122.655C97.8254 127.949 136.632 88.1062 117.806 38.9483Z" fill="black" fill-opacity="0.15"/>
<path fill-rule="evenodd" clip-rule="evenodd" d="M45.8871 45.7825C45.5263 46.5111 43.1367 51.3386 37.856 51.9968C31.263 52.8177 23.5405 40.5913 33.6526 35.3981C36.804 33.7802 47.1402 33.2366 45.8871 45.7825Z" fill="#4D5E83"/>
<path fill-rule="evenodd" clip-rule="evenodd" d="M50.3738 81.6558C50.5798 77.7438 49.4764 75.922 55.2013 72.3918C63.8332 67.07 71.5859 79.8059 61.8797 86.8632C60.903 87.2279 59.9262 87.5917 58.9484 87.9554C55.37 87.6047 52.4438 86.3607 50.3738 81.6558Z" fill="#4C5A82"/>
<path fill-rule="evenodd" clip-rule="evenodd" d="M88.0248 86.829C87.037 87.1405 86.0481 87.451 85.0593 87.7625C84.2162 87.6269 77.1951 86.5004 76.8113 80.9866C76.0315 69.7811 89.7582 70.4665 92.0594 76.957C93.8018 81.8699 91.6011 83.6435 91.159 84.0002C90.4505 84.571 89.307 85.8854 89.1563 86.0582C88.6719 86.6149 88.6066 86.4331 88.0248 86.829Z" fill="#4D5F8B"/>
<path fill-rule="evenodd" clip-rule="evenodd" d="M42.1892 72.831C41.6918 88.8257 22.8221 80.8037 27.8736 70.9428C31.2551 64.3417 38.6379 63.7669 42.1892 72.831Z" fill="#4D6089"/>
<path fill-rule="evenodd" clip-rule="evenodd" d="M94.1797 53.8166C93.0342 57.7939 93.0562 57.7005 93.0371 57.8C92.6744 58.3969 89.6256 63.4072 85.1579 61.5843C73.3816 56.78 83.3259 44.7294 87.1244 46.4277C91.0555 48.1862 91.5298 47.8486 93.4361 51.7094C93.9546 52.7605 93.7989 52.7373 94.1797 53.8166Z" fill="#4D5C83"/>
<path fill-rule="evenodd" clip-rule="evenodd" d="M77.346 32.6246C80.7737 44.9716 62.2567 44.7917 62.9903 34.7288C63.1942 31.9312 63.1078 31.7775 65.2442 29.9777C66.1938 29.1769 71.3388 25.8356 70.7801 28.5398C70.755 28.6593 70.2103 28.0403 69.6446 29.5728C68.0418 33.9159 72.6974 34.4264 74.0349 30.7143C74.6057 29.1296 76.4788 29.2542 77.346 32.6246Z" fill="#455880"/>
<path fill-rule="evenodd" clip-rule="evenodd" d="M77.56 69.6023C74.1133 76.333 67.7453 72.9405 66.8449 72.2602C65.3989 70.8484 65.3878 70.8745 65.2833 70.7348C60.3182 64.1156 78.6302 52.0902 77.56 69.6023Z" fill="#576389"/>
<path fill-rule="evenodd" clip-rule="evenodd" d="M66.5747 91.2325C66.3476 90.6004 64.0283 84.147 69.1029 83.2205C75.4588 82.0599 81.0701 89.1764 77.7047 92.6734C77.5138 92.8724 76.2245 94.2119 74.8478 94.6189C69.945 96.066 69.4989 95.3927 66.5747 91.2325Z" fill="#4C5B82"/>
<path fill-rule="evenodd" clip-rule="evenodd" d="M92.1066 63.8051C94.9464 64.7979 94.865 64.8321 95.1102 64.9034C98.8715 66.0008 97.9359 72.0672 97.0446 73.8589C94.8489 78.2764 94.1807 72.6561 87.4721 70.4765C86.8541 70.2755 81.8276 66.5685 92.1066 63.8051Z" fill="#445781"/>
<path fill-rule="evenodd" clip-rule="evenodd" d="M44.8972 57.8632C57.9949 49.9246 59.6147 66.873 54.735 69.6043C51.444 71.4462 51.4269 72.2692 47.8968 71.0955C47.746 71.0453 47.7511 71.0764 45.9282 70.8292C49.9568 66.668 50.7848 66.3535 51.3184 66.1495C55.2706 70.3358 54.531 64.1448 53.9944 62.8364C52.3414 58.8118 51.8369 58.0662 47.6616 59.2992C47.0708 59.0158 46.4799 58.7325 45.889 58.4491L44.8972 57.8632Z" fill="#4E5D87"/>
<path fill-rule="evenodd" clip-rule="evenodd" d="M44.8972 57.8632L45.889 58.4491C46.4799 58.7325 47.0708 59.0158 47.6616 59.2992C52.3675 64.4955 51.7767 65.0089 51.3184 66.1495C50.7848 66.3535 49.9568 66.668 45.9282 70.8292L45.1072 70.6403C44.9766 70.4976 36.9074 64.9627 44.8972 57.8632Z" fill="#53648E"/>
<path fill-rule="evenodd" clip-rule="evenodd" d="M61.9733 61.104C61.3041 61.0196 60.6358 60.9342 59.9676 60.8498C59.9023 60.7091 58.2341 58.3094 59.2702 56.8865C62.734 52.1314 62.4115 51.845 62.9009 51.7234C68.4096 50.3568 68.9995 51.4541 70.7982 56.8443C71.4072 58.6692 68.5975 57.3679 63.9419 61.8195C63.2857 61.5813 62.6295 61.3422 61.9733 61.104Z" fill="#525F84"/>
<path fill-rule="evenodd" clip-rule="evenodd" d="M41.1019 91.1057C43.1659 87.1254 43.5377 87.2068 47.9531 86.2924C48.0165 86.2793 56.363 86.3376 53.685 95.9121L52.9233 94.8771C46.901 91.2454 46.0961 91.361 43.9426 94.0692C42.8785 95.4067 41.5561 95.3524 41.4897 95.3886L41.0586 94.9223C40.7562 92.9728 40.7562 93.0421 41.1019 91.1057Z" fill="#596A92"/>
<path fill-rule="evenodd" clip-rule="evenodd" d="M25.6245 50.6271C25.9752 50.4593 25.8466 49.4071 27.8805 49.5498C28.6432 49.6031 27.2575 51.9023 35.9296 54.6958C40.1541 56.0565 35.0282 63.169 30.8208 62.9389C29.7616 62.8806 29.84 62.6857 28.8381 62.6575C27.6473 62.6244 27.8604 62.2446 26.8274 61.8074C27.7981 61.4909 28.7688 61.1733 29.7395 60.8568C30.2048 59.7173 30.0018 59.7484 30.5987 58.7516C31.7573 56.8141 27.2193 56.2142 26.4274 51.8128L25.6245 50.6271Z" fill="#475984"/>
<path fill-rule="evenodd" clip-rule="evenodd" d="M55.1601 48.3561C50.615 46.1935 49.5749 52.1254 49.4765 52.6891C49.2363 54.0608 44.652 54.2417 46.1804 50.9205C51.3315 39.7241 63.3077 44.0421 58.5305 54.6054L56.9156 55.8846C56.1047 54.9531 55.6937 55.0777 55.962 53.8266C56.592 50.8904 57.0191 50.6904 55.1601 48.3561Z" fill="#485A83"/>
<path fill-rule="evenodd" clip-rule="evenodd" d="M41.4897 95.3886C41.5561 95.3524 42.8785 95.4067 43.9426 94.0692C46.0961 91.361 46.901 91.2454 52.9233 94.8771L53.685 95.9121C50.815 100.931 43.4724 100.59 41.4897 95.3886Z" fill="#4E5C81"/>
<path fill-rule="evenodd" clip-rule="evenodd" d="M25.6245 50.6271L26.4274 51.8128C27.2193 56.2142 31.7573 56.8141 30.5987 58.7516C30.0018 59.7484 30.2048 59.7173 29.7395 60.8568C28.7688 61.1733 27.7981 61.4909 26.8274 61.8074C26.6716 61.7321 25.5532 62.4917 24.8106 60.8337C24.682 60.5463 24.8187 60.1956 24.7363 59.8921C24.7252 59.8499 23.7907 58.0321 23.7073 57.8713C23.4279 53.8759 23.05 53.6206 25.6245 50.6271Z" fill="#4C5B8A"/>
<path fill-rule="evenodd" clip-rule="evenodd" d="M31.4138 72.8722C31.5937 72.3898 33.8045 66.465 37.5858 71.0805C41.0637 75.3241 33.0196 81.8769 31.4138 72.8722Z" fill="#303242"/>
<path fill-rule="evenodd" clip-rule="evenodd" d="M90.0908 50.824C90.3099 51.2541 92.5939 55.749 88.087 56.5147C83.3169 57.3246 81.9141 47.0788 90.0908 50.824Z" fill="#32323F"/>
<path fill-rule="evenodd" clip-rule="evenodd" d="M54.72 79.001C54.7491 78.5066 55.0948 72.7647 59.7102 75.3422C63.4182 77.4143 60.0639 86.7316 54.72 79.001Z" fill="#34394F"/>
<path fill-rule="evenodd" clip-rule="evenodd" d="M80.1053 69.8656C80.9956 60.1815 75.4306 61.6125 75.9742 58.843C76.6294 55.5028 80.3786 62.4716 83.0526 63.9016C85.7517 65.3456 84.2303 66.0862 82.9863 68.8537C82.2638 70.4595 81.8528 69.7771 80.1053 69.8656Z" fill="#495A83"/>
<path fill-rule="evenodd" clip-rule="evenodd" d="M73.8892 44.5807C76.7722 48.131 78.0112 48.9549 78.4463 49.2433C77.6464 51.1677 77.0435 50.9406 76.8747 54.8124C73.1576 49.6192 73.5224 49.2514 71.1609 47.8526C72.1557 45.9142 72.0221 45.8087 73.8892 44.5807Z" fill="#3F507D"/>
<path fill-rule="evenodd" clip-rule="evenodd" d="M45.0882 74.0449C47.8024 73.663 49.3027 73.2882 48.5038 75.8838C47.3442 79.6552 47.92 79.6672 48.0536 82.1684C44.3828 83.1351 43.609 79.4491 43.7547 78.9216C44.432 76.4697 44.5968 76.5732 45.0882 74.0449Z" fill="#4D5B86"/>
<path fill-rule="evenodd" clip-rule="evenodd" d="M76.8747 54.8124C73.1576 49.6192 73.5224 49.2514 71.1609 47.8526C69.8254 53.5754 74.8298 59.882 76.8747 54.8124Z" fill="#50628D"/>
<path fill-rule="evenodd" clip-rule="evenodd" d="M64.991 43.8451C66.7857 44.1104 66.7787 44.0883 66.9284 44.1325C72.401 45.7081 66.8109 48.5891 63.0114 48.7067C62.5914 48.7198 58.8924 47.1271 64.991 43.8451Z" fill="#5F6C8E"/>
<path fill-rule="evenodd" clip-rule="evenodd" d="M85.0795 75.4326C84.3389 77.8604 84.3821 77.8584 84.1801 78.189C83.743 78.591 83.1572 78.5528 83.2467 79.9285C83.3562 81.6297 84.1792 80.5937 85.7197 79.9174C86.3166 80.3987 86.9125 80.8811 87.5094 81.3635C87.1295 81.7142 82.8658 85.6473 81.059 80.9555C79.2904 76.3601 84.5399 75.5191 85.0795 75.4326Z" fill="#343846"/>
<path fill-rule="evenodd" clip-rule="evenodd" d="M34.4775 41.9117C34.4102 41.4505 33.6887 36.5024 38.7594 37.9736C41.4725 38.7604 42.4081 45.3856 36.5979 44.2139C38.0931 41.5078 39.519 41.0194 37.6228 40.1009C37.464 40.0236 37.5052 40.0718 36.6259 40.523C35.4533 41.1249 35.5879 41.1932 34.4775 41.9117Z" fill="#35384A"/>
<path fill-rule="evenodd" clip-rule="evenodd" d="M47.6616 59.2992C51.8369 58.0662 52.3414 58.8118 53.9944 62.8364C54.531 64.1448 55.2706 70.3358 51.3184 66.1495C51.7767 65.0089 52.3675 64.4955 47.6616 59.2992Z" fill="#43507B"/>
<path fill-rule="evenodd" clip-rule="evenodd" d="M73.8892 44.5807C74.4037 44.3606 78.2112 42.7398 80.8791 44.8993C81.1896 45.1505 81.5765 45.464 78.4463 49.2433C78.0112 48.9549 76.7722 48.131 73.8892 44.5807Z" fill="#4B6191"/>
<path fill-rule="evenodd" clip-rule="evenodd" d="M74.885 76.0536C74.3293 79.7697 74.8589 80.1766 73.6762 80.5062C73.2913 80.6138 69.3622 81.7111 68.9281 78.9638C68.5864 76.8083 70.0073 76.4978 74.885 76.0536Z" fill="#4D597E"/>
<path fill-rule="evenodd" clip-rule="evenodd" d="M61.9733 61.104C62.6295 61.3422 63.2857 61.5813 63.9419 61.8195C61.2519 68.0779 62.3029 68.4909 61.7743 68.7291C58.0382 70.4183 60.058 64.3427 60.1846 63.9619C60.5725 62.7972 60.5474 62.8756 60.2942 61.6497C60.8539 61.4678 61.4136 61.2859 61.9733 61.104Z" fill="#505068"/>
<path fill-rule="evenodd" clip-rule="evenodd" d="M39.9704 56.8111C40.8225 56.6996 41.6757 56.5881 42.5279 56.4765C41.9872 57.2603 39.5222 66.1566 37.0572 64.4453C35.0435 63.0485 38.3204 63.0615 39.9704 56.8111Z" fill="#6C4D58"/>
<path fill-rule="evenodd" clip-rule="evenodd" d="M85.0795 75.4326C86.6883 75.9843 89.6618 76.6224 87.5094 81.3635C86.9125 80.8811 86.3166 80.3987 85.7197 79.9174C85.5508 78.597 85.5126 78.5357 84.1801 78.189C84.3821 77.8584 84.3389 77.8604 85.0795 75.4326Z" fill="#363948"/>
<path fill-rule="evenodd" clip-rule="evenodd" d="M39.9704 56.8111C40.2045 53.69 39.8195 52.5786 42.8954 52.7072C43.1979 52.7202 45.9545 52.9413 42.5279 56.4765C41.6757 56.5881 40.8225 56.6996 39.9704 56.8111Z" fill="#96595F"/>
<path fill-rule="evenodd" clip-rule="evenodd" d="M34.4775 41.9117C35.5879 41.1932 35.4533 41.1249 36.6259 40.523C37.5052 40.0718 37.464 40.0236 37.6228 40.1009C39.519 41.0194 38.0931 41.5078 36.5979 44.2139C35.1528 43.3497 35.2543 43.3186 34.4775 41.9117Z" fill="#474E66"/>
<path fill-rule="evenodd" clip-rule="evenodd" d="M84.1801 78.189C85.5126 78.5357 85.5508 78.597 85.7197 79.9174C84.1792 80.5937 83.3562 81.6297 83.2467 79.9285C83.1572 78.5528 83.743 78.591 84.1801 78.189Z" fill="#535E87"/>
<path fill-rule="evenodd" clip-rule="evenodd" d="M53.9793 49.8111C54.0707 52.0138 54.8666 53.6397 52.9282 52.6479C52.4689 52.4127 51.8801 50.9125 52.0077 50.7839C52.5242 50.2633 53.4638 50.3316 53.9793 49.8111Z" fill="#334263"/>
<path fill-rule="evenodd" clip-rule="evenodd" d="M88.7191 52.8549C88.6447 53.0358 87.261 56.4212 86.4742 53.7995C85.9335 51.9978 87.0118 52.1073 88.7191 52.8549Z" fill="#4D546F"/>
<path fill-rule="evenodd" clip-rule="evenodd" d="M34.0645 73.027C34.2756 73.0039 34.577 71.8854 35.9246 72.823C37.3786 73.8359 34.8132 75.3623 34.0143 73.9093C33.8726 73.651 34.2072 73.2852 34.0645 73.027Z" fill="#4D5571"/>
<path fill-rule="evenodd" clip-rule="evenodd" d="M41.1019 91.1057C40.7562 93.0421 40.7562 92.9728 41.0586 94.9223C40.8446 94.4581 40.0306 94.4882 39.8175 94.024C39.6688 93.7014 40.1944 93.3778 40.1843 93.0221C40.1743 92.6503 39.6005 92.3267 39.7603 91.9921C39.9924 91.5088 40.8707 91.5891 41.1019 91.1057Z" fill="#49516A"/>
<path fill-rule="evenodd" clip-rule="evenodd" d="M94.1797 53.8166C94.447 56.6885 94.5917 56.6986 94.4681 56.9156C94.1917 57.403 93.3145 57.3116 93.0371 57.8C93.0562 57.7005 93.0342 57.7939 94.1797 53.8166Z" fill="#40455C"/>
<path fill-rule="evenodd" clip-rule="evenodd" d="M61.8797 86.8632C61.8757 86.8652 62.1238 88.3524 58.9484 87.9554C59.9262 87.5917 60.903 87.2279 61.8797 86.8632Z" fill="#41465D"/>
<path fill-rule="evenodd" clip-rule="evenodd" d="M88.0248 86.829C86.9757 87.3103 87.243 87.8882 86.0341 87.7414C85.5126 87.6791 85.599 87.8268 85.0593 87.7625C86.0481 87.451 87.037 87.1405 88.0248 86.829Z" fill="#444B65"/>
<path fill-rule="evenodd" clip-rule="evenodd" d="M65.001 54.9611C65.7989 54.9069 65.3527 54.1562 66.1395 54.103C66.2279 54.0969 68.1222 53.9693 66.9836 54.8265C66.4551 55.2254 65.5305 54.5622 65.001 54.9611Z" fill="#515E7E"/>
<path fill-rule="evenodd" clip-rule="evenodd" d="M59.9676 60.8498C60.6358 60.9342 61.3041 61.0196 61.9733 61.104C61.4136 61.2859 60.8539 61.4678 60.2942 61.6497L59.9676 60.8498Z" fill="#3D4C6F"/>
</svg>
