<svg width="120" height="120" viewBox="0 0 120 120" fill="none" xmlns="http://www.w3.org/2000/svg">
<path fill-rule="evenodd" clip-rule="evenodd" d="M43.8947 53.8762C42.6707 53.8169 42.72 53.0883 40.8911 53.7315C40.7203 53.7908 40.7946 53.8289 38.8321 54.67C33.9293 56.7722 29.4264 52.9225 26.9544 54.2188C4.04303 66.2362 -3.57398 37.4675 9.09659 29.2214C19.5996 22.3852 21.2557 31.6371 30.7548 28.4255C34.6749 27.1 39.3094 30.6503 41.7392 29.3962C47.863 26.2369 51.3871 28.6888 53.9535 29.135C55.69 29.4374 57.1722 26.1243 62.9804 24.618C71.1903 22.4907 72.3509 25.9314 74.1507 27.6317C75.4309 28.8415 80.2263 28.2557 80.8352 27.3985C87.8955 17.4682 103.284 21.4164 103.339 37.7679C103.345 39.5073 108.252 39.2632 111.077 41.0679C126.388 50.8515 111.405 73.2302 95.8693 63.3733L97.057 61.9002C96.8168 61.669 94.0544 59.0162 94.0544 59.0162C93.9027 58.2595 94.6805 58.4313 94.4885 57.7218C94.2162 56.719 93.5067 55.8879 92.9661 54.9996C91.8075 53.0944 92.107 52.9366 91.9341 52.8562C91.6447 52.7206 91.4337 53.5355 91.1443 53.3998L89.9776 53.8792C90.0238 51.8704 91.1403 50.6043 89.1446 51.0163C88.4321 51.163 88.5225 51.2152 88.0563 51.7197C85.8124 54.1485 79.9569 56.8918 84.2036 57.7319C91.6317 59.201 91.4186 68.0932 92.5581 70.6075C93.4042 70.93 99.4657 73.2413 101.718 77.2608C110 92.0406 89.6621 105.517 79.2907 93.8806C74.015 87.9608 79.4906 83.6528 72.0997 80.8814C66.0342 78.6073 66.5146 71.9037 61.7022 76.6187C53.3255 84.8235 39.5294 79.3319 37.7056 72.0033C34.6477 59.7236 39.2169 59.1478 43.8947 53.8762Z" fill="#674A35"/>
<path fill-rule="evenodd" clip-rule="evenodd" d="M26.3937 35.0222C33.4872 57.8029 1.04351 55.0144 6.14027 37.8821C8.15305 31.1173 18.5978 24.0037 26.3937 35.0222Z" fill="#DE9058"/>
<path fill-rule="evenodd" clip-rule="evenodd" d="M79.2175 57.8676C78.7281 72.167 54.4261 75.3254 58.8747 56.8305C60.592 49.6939 75.405 45.1206 79.2175 57.8676Z" fill="#E39559"/>
<path fill-rule="evenodd" clip-rule="evenodd" d="M94.1421 48.8347C98.9595 36.9982 111.52 41.9282 113.935 47.9726C120.362 64.0437 94.4124 67.6019 94.1421 48.8347Z" fill="#DE8D52"/>
<path fill-rule="evenodd" clip-rule="evenodd" d="M46.9617 55.0336C49.9723 54.4287 49.9342 54.5051 52.8744 55.2578C57.6054 56.4697 55.654 58.2372 55.4701 60.9032C55.1294 65.8392 58.9017 69.5944 58.3138 71.0183C55.3062 78.2957 38.6654 75.4489 39.5306 64.9137C40.0592 58.4644 46.2402 55.5301 46.9617 55.0336Z" fill="#E09357"/>
<path fill-rule="evenodd" clip-rule="evenodd" d="M91.3184 73.2212C92.1123 73.4573 97.9939 75.2129 99.8177 79.145C101.866 83.5625 99.7956 87.4624 98.7315 88.7155C88.6625 100.583 73.3421 83.7755 80.0175 81.8612C85.3072 80.3438 85.9775 80.4996 91.3184 73.2212Z" fill="#E19053"/>
<path fill-rule="evenodd" clip-rule="evenodd" d="M75.2451 33.7796C76.1636 30.0274 77.2137 30.5922 81.0252 31.0574C86.8204 31.7629 93.2698 40.7877 83.6852 48.3404C80.8143 50.6034 80.9428 53.2553 79.1732 51.7399C74.389 47.641 74.188 47.8239 67.8774 47.1064C61.3798 46.3678 72.8977 45.4192 75.2451 33.7796Z" fill="#DE8F54"/>
<path fill-rule="evenodd" clip-rule="evenodd" d="M91.1126 47.0357C91.2542 45.8137 94.6477 38.0811 88.8405 32.0257C88.6445 31.8217 87.6598 30.7947 86.051 29.8582C83.9397 28.6282 82.2575 28.4061 84.1999 26.7993C92.227 20.1571 108.584 32.6538 96.5459 41.2998C96.0938 41.6244 96.3932 41.7761 92.0943 46.6548C91.8622 46.9181 91.3447 46.7724 91.1126 47.0357Z" fill="#E08F54"/>
<path fill-rule="evenodd" clip-rule="evenodd" d="M70.685 31.6423C70.0711 32.5868 64.915 40.5113 59.9901 40.8088C58.2255 40.9153 59.6554 38.3096 57.915 33.7927C57.8165 33.5374 54.2582 29.7812 64.095 27.1092C73.7429 24.4885 70.9373 31.0544 70.685 31.6423Z" fill="#DE965E"/>
<path fill-rule="evenodd" clip-rule="evenodd" d="M87.8013 66.8744C87.1551 68.0722 81.5278 78.4969 73.2426 75.6551C71.9101 75.1978 72.6386 74.6653 72.311 74.1297C86.1784 68.2853 80.4295 63.3895 82.7468 60.6321C83.5034 59.7317 85.8016 61.0883 86.7733 62.1474C88.5409 64.0758 88.146 64.2919 87.8013 66.8744Z" fill="#DF955B"/>
<path fill-rule="evenodd" clip-rule="evenodd" d="M37.6676 35.8577C38.0495 37.0726 40.9687 46.3607 32.9125 51.0415C27.1515 54.3878 37.4666 42.8668 31.7247 33.8349C30.4465 31.8241 30.5118 30.7298 32.8381 30.9117C36.6366 31.2081 35.7593 32.612 37.6676 35.8577Z" fill="#DF9257"/>
<path fill-rule="evenodd" clip-rule="evenodd" d="M47.8199 31.9826C54.7828 39.4318 50.0277 51.0231 43.9521 50.802C48.7263 39.7764 47.3105 38.7957 44.2004 32.7051C44.0657 32.4428 43.4748 29.5497 47.8199 31.9826Z" fill="#DB8E52"/>
<path fill-rule="evenodd" clip-rule="evenodd" d="M41.6318 49.4848C41.2429 49.9038 38.3146 53.0622 35.4537 53.0823C31.4021 53.1094 36.5942 52.1116 38.8602 48.8155C44.7509 40.2439 38.4573 32.0682 38.5015 31.7617C38.5658 31.3155 39.3929 31.9084 39.843 31.9245C40.6198 31.9516 40.5867 31.9616 40.9987 32.5535C44.3279 37.3257 46.3145 40.5534 41.6318 49.4848Z" fill="#D0864E"/>
<path fill-rule="evenodd" clip-rule="evenodd" d="M87.8013 66.8744C88.0013 67.3819 88.8521 67.4222 89.0521 67.9296C89.1697 68.2291 89.0591 68.2271 89.1455 71.9492C88.9425 71.9662 88.4019 70.8397 87.2624 72.1019C87.0443 72.342 87.1579 72.3561 86.9298 72.6455C81.7305 79.2697 75.6017 77.5263 74.9465 77.8137C74.4481 78.0317 74.4833 78.913 73.9858 79.131C71.5088 77.5282 70.5039 77.9965 70.6175 74.9879L72.311 74.1297C72.6386 74.6653 71.9101 75.1978 73.2426 75.6551C81.5278 78.4969 87.1551 68.0722 87.8013 66.8744Z" fill="#795439"/>
<path fill-rule="evenodd" clip-rule="evenodd" d="M66.1588 59.0945C70.7752 52.4955 72.381 57.0185 72.1328 57.9007C71.1761 61.3073 71.2947 65.3218 67.024 64.8013C64.0425 64.4385 64.1691 63.7813 63.8354 60.8169C65.1187 60.0311 65.0986 60.1627 66.1588 59.0945Z" fill="#D8864F"/>
<path fill-rule="evenodd" clip-rule="evenodd" d="M50.9741 31.7384C51.4957 31.5032 51.5268 30.635 52.0483 30.3999C53.0924 29.9306 54.6178 32.7131 54.7615 32.9754C60.1547 42.8142 49.5974 55.3581 52.7216 45.7726C55.5172 37.1919 51.6976 32.6076 50.9741 31.7384Z" fill="#D58A52"/>
<path fill-rule="evenodd" clip-rule="evenodd" d="M72.4736 35.6787C71.0577 38.209 70.2398 41.0337 62.9503 44.7508C62.6448 44.8653 60.7255 45.5889 59.0062 45.8039C58.6685 45.8461 56.5341 44.3026 60.2502 43.1209C70.6367 39.8178 69.9323 34.8889 71.2236 35.0024C71.6959 35.0436 72.0013 35.6375 72.4736 35.6787Z" fill="#CF834C"/>
<path fill-rule="evenodd" clip-rule="evenodd" d="M30.8524 37.7817C30.9529 39.1906 31.7146 49.8584 23.8745 53.9885C23.7328 54.0639 18.9435 54.8547 23.0736 52.1536C31.3317 46.7523 29.3008 39.6508 29.736 38.4952C29.8907 38.0812 30.6966 38.1957 30.8524 37.7817Z" fill="#A86B41"/>
<path fill-rule="evenodd" clip-rule="evenodd" d="M89.1455 71.9492C86.3761 76.232 83.486 81.2594 73.9858 79.131C74.4833 78.913 74.4481 78.0317 74.9465 77.8137C75.6017 77.5263 81.7305 79.2697 86.9298 72.6455C87.1579 72.3561 87.0443 72.342 87.2624 72.1019C88.4019 70.8397 88.9425 71.9662 89.1455 71.9492Z" fill="#C47D49"/>
<path fill-rule="evenodd" clip-rule="evenodd" d="M89.9776 53.8792L91.1443 53.3998C91.4337 53.5355 91.6447 52.7206 91.9341 52.8562C92.107 52.9366 91.8075 53.0944 92.9661 54.9996C93.5067 55.8879 94.2162 56.719 94.4885 57.7218C94.6805 58.4313 93.9027 58.2595 94.0544 59.0162C94.0544 59.0162 96.8168 61.669 97.057 61.9002L95.8693 63.3733C91.0348 59.6321 90.7453 59.0594 89.9776 53.8792Z" fill="#644F3B"/>
<path fill-rule="evenodd" clip-rule="evenodd" d="M63.0733 46.7627C64.051 48.4258 63.5918 48.7061 61.8523 49.5101C60.0395 50.3471 60.2787 50.6255 58.6719 51.766C57.7765 51.136 56.8812 50.5069 55.9858 49.8768C58.891 47.1506 59.1311 47.6751 63.0733 46.7627Z" fill="#BD9F7B"/>
<path fill-rule="evenodd" clip-rule="evenodd" d="M61.638 73.3317C61.1085 73.8482 55.5122 79.3218 53.9356 78.4425C53.5356 78.2194 53.6763 77.4608 53.2764 77.2377C53.3095 77.2236 54.9816 76.8267 56.7623 75.7434C59.3328 74.1788 58.8324 72.3358 61.638 73.3317Z" fill="#A66E48"/>
<path fill-rule="evenodd" clip-rule="evenodd" d="M55.9858 49.8768C56.8812 50.5069 57.7765 51.136 58.6719 51.766C58.5282 51.9298 57.9459 55.0787 53.237 52.5736C51.6131 51.7094 55.7015 49.9964 55.9858 49.8768Z" fill="#C5AE8D"/>
<path fill-rule="evenodd" clip-rule="evenodd" d="M66.1588 59.0945C65.0986 60.1627 65.1187 60.0311 63.8354 60.8169C63.6968 60.5436 63.6397 60.235 63.501 59.9626C62.1524 57.3087 60.0582 56.0396 63.0146 55.6637C63.4578 55.6075 63.6236 56.338 64.0124 56.5581C64.332 56.74 64.9017 56.5139 65.0786 56.8354C65.4062 57.4333 64.4546 57.2876 64.7379 57.8805C65.166 58.7768 65.7287 58.1952 66.1588 59.0945Z" fill="#DF8E53"/>
</svg>
