<svg width="100" height="100" viewBox="0 0 100 100" fill="none" xmlns="http://www.w3.org/2000/svg">
<path fill-rule="evenodd" clip-rule="evenodd" d="M85.2257 39.6823C96.0814 48.1926 99.3925 57.2908 93.5783 70.9391C80.6655 89.1456 66.9077 86.6826 54.2361 75.8711C48.3364 67.632 49.0057 65.5781 48.1937 60.0583C48.6208 44.978 63.3564 27.276 85.2257 39.6823Z" fill="#40322C"/>
<path fill-rule="evenodd" clip-rule="evenodd" d="M9.93782 56.7924C-12.1304 28.4135 23.6474 3.87825 44.7922 22.9268C63.3986 39.6883 39.2915 80.2594 9.93782 56.7924Z" fill="#3B312D"/>
<path fill-rule="evenodd" clip-rule="evenodd" d="M41.8951 25.0411C42.3403 25.0823 45.37 25.3626 45.971 28.8737L44.7953 29.957L44.1994 30.9618C48.2581 51.4223 35.6749 55.3272 35.7523 56.6788C35.7915 57.3711 36.8647 57.7179 36.9039 58.4102C35.2559 59.1036 22.9421 64.2857 14.5835 57.1842C-12.5896 34.095 29.2497 7.96006 24.2484 25.4732C23.7289 25.3305 16.0707 23.2222 17.6745 26.9373C19.3205 30.7498 24.978 28.5039 22.8476 35.0437C20.249 43.0204 26.3275 39.4199 28.5845 36.8665C31.366 33.7202 32.2865 37.1579 35.7332 38.0483C43.9562 40.1706 34.7595 31.0131 35.9201 30.0765C39.0242 27.5754 39.1377 27.8557 41.8951 25.0411Z" fill="#B75743"/>
<path fill-rule="evenodd" clip-rule="evenodd" d="M89.9115 52.6332L90.016 54.5555L89.4975 55.0791C90.6049 78.3441 71.6608 78.6697 69.9183 79.0737C69.655 79.135 69.7575 79.2595 66.986 80.7568C47.0009 74.1497 46.5045 52.1468 59.0957 42.2859C66.4133 36.5541 66.7479 41.4951 68.4291 44.3771C71.7824 50.127 68.0844 49.6909 66.1641 51.3931C65.8405 51.6805 62.0501 55.466 69.9344 55.269C74.8794 55.1464 75.1065 54.8047 75.4763 55.5242C78.6528 61.7053 77.7504 63.3955 80.9369 62.9754C84.464 62.5112 80.963 54.1345 82.8461 53.8109C83.4109 53.7134 83.3697 53.7235 89.9115 52.6332Z" fill="#B85844"/>
<path fill-rule="evenodd" clip-rule="evenodd" d="M93.5783 70.9391L95.3127 72.162L95.2403 73.1669L95.0353 74.1718L94.6635 75.1767C93.4958 77.2729 85.0337 92.4567 67.9899 88.8934C58.6053 86.9308 52.6373 77.9391 52.9307 77.1865C53.1548 76.6107 54.012 76.4469 54.2361 75.8711C66.9077 86.6826 80.6655 89.1456 93.5783 70.9391Z" fill="black" fill-opacity="0.15"/>
<path fill-rule="evenodd" clip-rule="evenodd" d="M28.1393 18.9515L28.4518 19.9493C29.8989 23.5177 29.8717 23.5026 30.0144 23.8031C31.379 26.6841 32.4412 23.6021 39.7296 23.7619L41.8951 25.0411C39.1377 27.8557 39.0242 27.5754 35.9201 30.0765C34.7595 31.0131 43.9562 40.1706 35.7332 38.0483C32.2865 37.1579 31.366 33.7202 28.5845 36.8665C26.3275 39.4199 20.249 43.0204 22.8476 35.0437C24.978 28.5039 19.3205 30.7498 17.6745 26.9373C16.0707 23.2222 23.7289 25.3305 24.2484 25.4732L24.3901 27.1514C23.546 27.1182 23.6013 27.3081 22.7461 27.087C14.9462 25.0733 27.8067 29.6163 26.2733 32.7445C21.3815 42.721 29.3683 32.3808 29.7572 32.0029C30.0818 32.2401 51.6405 47.4379 34.659 33.1043C33.0723 31.7648 32.9065 31.8693 32.6723 29.8836C34.1897 28.8185 34.1113 28.8566 35.6448 27.8377C36.0568 27.5412 36.4678 27.2448 36.8798 26.9494C36.8215 26.2459 37.6124 25.8601 36.7934 25.9143C33.2371 26.1485 33.1356 26.2027 30.751 28.9642L29.6386 27.9754C29.1854 26.9283 29.2367 27.0016 28.7413 25.8993C28.6297 25.6531 28.8608 25.1054 28.5905 25.1034C28.0217 25.0974 27.6399 25.8882 27.0712 25.8832C26.7838 21.4597 25.3196 20.702 28.1393 18.9515Z" fill="#363027"/>
<path fill-rule="evenodd" clip-rule="evenodd" d="M89.9115 52.6332C96.8994 51.6494 93.0105 67.4582 90.7254 70.9692C88.178 74.8833 87.8957 74.5084 84.1716 77.4276C79.2477 81.2874 68.3848 80.8181 66.986 80.7568C69.7575 79.2595 69.655 79.135 69.9183 79.0737C71.6608 78.6697 90.6049 78.3441 89.4975 55.0791L90.016 54.5555L89.9115 52.6332Z" fill="#A34B3A"/>
<path fill-rule="evenodd" clip-rule="evenodd" d="M45.971 28.8737C46.9025 30.4353 47.0653 30.2826 47.5828 32.0542C52.3942 48.5071 43.3221 54.873 36.9039 58.4102C36.8647 57.7179 35.7915 57.3711 35.7523 56.6788C35.6749 55.3272 48.2581 51.4223 44.1994 30.9618L44.7953 29.957L45.971 28.8737Z" fill="#A24838"/>
<path fill-rule="evenodd" clip-rule="evenodd" d="M70.9695 45.0111C71.1875 44.7358 70.3162 44.3268 70.5343 44.0514C70.891 43.6003 72.6617 41.7925 75.6562 49.0839C76.0461 49.6235 75.4994 50.5289 75.8903 51.0685C76.8239 52.3588 80.4375 48.1403 84.8499 49.308C85.0046 49.3482 86.9742 51.8865 83.0853 51.4102C78.3101 50.8254 79.6828 53.4461 80.9791 58.0947C81.4403 59.7477 78.8568 59.6935 77.1253 54.0108C75.8984 49.9873 66.9499 55.3252 68.9577 52.0614C69.2581 51.574 75.6652 49.722 72.109 46.9204C71.2056 46.2079 71.5875 46.0451 70.9695 45.0111Z" fill="#5E7D3F"/>
<path fill-rule="evenodd" clip-rule="evenodd" d="M62.6088 54.0741L62.6851 55.079C63.1705 66.9487 57.3181 61.5876 56.889 61.0772C52.2665 55.5794 62.3827 45.8039 62.6088 54.0741Z" fill="#D5886E"/>
<path fill-rule="evenodd" clip-rule="evenodd" d="M10.7518 38.9899C10.8734 37.1821 10.8442 37.1891 10.8824 37.0374C11.7627 33.5886 18.5577 31.2251 17.5458 41.9854C17.4906 42.5763 14.0056 49.5864 10.7518 38.9899Z" fill="#D4836B"/>
<path fill-rule="evenodd" clip-rule="evenodd" d="M59.968 15.9881C60.5599 15.4364 66.2767 10.1056 68.8371 11.1305C75.5095 13.8005 53.6704 25.5797 59.968 15.9881Z" fill="#48503D"/>
<path fill-rule="evenodd" clip-rule="evenodd" d="M29.7049 18.849C39.392 19.8318 39.6533 22.8715 39.7296 23.7619C32.4412 23.6021 31.379 26.6841 30.0144 23.8031C29.8717 23.5026 29.8989 23.5177 28.4518 19.9493L29.7049 18.849Z" fill="#BA5D47"/>
<path fill-rule="evenodd" clip-rule="evenodd" d="M71.287 40.6278C65.1934 36.0144 74.7046 38.7246 76.0331 38.6944C79.6657 38.613 78.5232 40.3655 77.4801 43.7811C76.6792 46.4049 75.8482 44.0364 71.287 40.6278Z" fill="#B85B44"/>
<path fill-rule="evenodd" clip-rule="evenodd" d="M24.3901 27.1514C27.45 29.4917 27.1948 32.843 29.9522 30.1097C30.2828 29.7821 30.4194 29.2917 30.751 28.9642L30.5139 29.9781C30.2616 30.6534 30.0094 31.3287 29.7572 32.0029C29.3683 32.3808 21.3815 42.721 26.2733 32.7445C27.8067 29.6163 14.9462 25.0733 22.7461 27.087C23.6013 27.3081 23.546 27.1182 24.3901 27.1514Z" fill="#6D763A"/>
<path fill-rule="evenodd" clip-rule="evenodd" d="M88.8312 46.1667C88.8905 47.1314 88.9488 48.0961 89.0081 49.0608C86.4567 47.8278 86.5019 48.0408 83.9002 47.1686C82.4482 46.6812 83.4762 42.1341 83.9505 41.9523C84.4318 41.7674 84.4258 42.0065 88.8312 46.1667Z" fill="#A85045"/>
<path fill-rule="evenodd" clip-rule="evenodd" d="M80.9962 41.2117C81.1509 41.5553 81.8875 41.2971 82.0423 41.6408C83.5054 44.8905 77.6328 48.8709 77.0269 49.2808C77.3946 45.9165 79.0668 45.6291 80.9962 41.2117Z" fill="#676A37"/>
<path fill-rule="evenodd" clip-rule="evenodd" d="M30.5139 29.9781C31.2334 29.9469 31.9528 29.9158 32.6723 29.8836C32.9065 31.8693 33.0723 31.7648 34.659 33.1043C51.6405 47.4379 30.0818 32.2401 29.7572 32.0029C30.0094 31.3287 30.2616 30.6534 30.5139 29.9781Z" fill="#626A3C"/>
<path fill-rule="evenodd" clip-rule="evenodd" d="M36.8798 26.9494L35.6448 27.8377C34.1113 28.8566 34.1897 28.8185 32.6723 29.8836C31.9528 29.9158 31.2334 29.9469 30.5139 29.9781L30.751 28.9642C33.1356 26.2027 33.2371 26.1485 36.7934 25.9143C37.6124 25.8601 36.8215 26.2459 36.8798 26.9494Z" fill="#767B3E"/>
<path fill-rule="evenodd" clip-rule="evenodd" d="M27.0712 25.8832C27.6399 25.8882 28.0217 25.0974 28.5905 25.1034C28.8608 25.1054 28.6297 25.6531 28.7413 25.8993C29.2367 27.0016 29.1854 26.9283 29.6386 27.9754C27.7103 27.9432 27.665 27.7422 27.0712 25.8832Z" fill="#68673A"/>
<path fill-rule="evenodd" clip-rule="evenodd" d="M88.8312 46.1667C90.6772 47.9062 90.7445 47.8409 90.8249 48.0449C91.3685 49.4276 90.4903 49.117 89.0081 49.0608C88.9488 48.0961 88.8905 47.1314 88.8312 46.1667Z" fill="#7B3E3A"/>
<path fill-rule="evenodd" clip-rule="evenodd" d="M28.1393 18.9515C28.6609 18.9173 29.1833 18.8832 29.7049 18.849L28.4518 19.9493L28.1393 18.9515Z" fill="#A1503E"/>
</svg>
